<svg width="90" height="90" viewBox="0 0 90 90" fill="none" xmlns="http://www.w3.org/2000/svg">
<g clip-path="url(#clip0_1902_6)">
<mask id="mask0_1902_6" style="mask-type:alpha" maskUnits="userSpaceOnUse" x="0" y="0" width="90" height="90">
<path d="M44.9266 0C45.8682 0 46.6892 0.643846 46.9191 1.55769C47.6215 4.35273 48.5471 7.08689 49.6869 9.73385C52.6666 16.6569 56.7554 22.716 61.9463 27.9069C67.14 33.0992 73.1977 37.188 80.1194 40.1677C82.7669 41.3072 85.5015 42.2328 88.2969 42.9355C89.2108 43.1654 89.8532 43.9851 89.8532 44.9266C89.8532 45.8682 89.2108 46.6892 88.2955 46.9191C85.5005 47.6215 82.7663 48.5471 80.1194 49.6869C73.1963 52.6666 67.1386 56.7554 61.9463 61.9463C56.7554 67.14 52.6666 73.1977 49.6869 80.1194C48.5469 82.7669 47.6209 85.5015 46.9177 88.2969C46.8064 88.741 46.5501 89.1352 46.1895 89.4171C45.8288 89.699 45.3844 89.8525 44.9266 89.8532C43.9851 89.8532 43.1654 89.2108 42.9355 88.2955C42.2326 85.5005 41.3066 82.7663 40.1663 80.1194C37.188 73.1963 33.1006 67.1386 27.9069 61.9463C22.7146 56.7554 16.6569 52.6666 9.73385 49.6869C7.08679 48.547 4.35265 47.6209 1.55769 46.9177C1.11363 46.8067 0.719285 46.5508 0.43713 46.1904C0.154975 45.83 0.0011417 45.3857 0 44.928C0 43.9865 0.643846 43.1668 1.55769 42.9369C4.35277 42.2341 7.08693 41.308 9.73385 40.1677C16.6569 37.1894 22.716 33.1006 27.9069 27.9083C33.0992 22.7174 37.188 16.6583 40.1677 9.73523C41.3072 7.08813 42.2327 4.354 42.9355 1.55908C43.0463 1.11453 43.3023 0.7197 43.6631 0.437251C44.0238 0.154802 44.4685 0.000911092 44.9266 0Z" fill="black"/>
<path d="M44.9266 0C45.8682 0 46.6892 0.643846 46.9191 1.55769C47.6215 4.35273 48.5471 7.08689 49.6869 9.73385C52.6666 16.6569 56.7554 22.716 61.9463 27.9069C67.14 33.0992 73.1977 37.188 80.1194 40.1677C82.7669 41.3072 85.5015 42.2328 88.2969 42.9355C89.2108 43.1654 89.8532 43.9851 89.8532 44.9266C89.8532 45.8682 89.2108 46.6892 88.2955 46.9191C85.5005 47.6215 82.7663 48.5471 80.1194 49.6869C73.1963 52.6666 67.1386 56.7554 61.9463 61.9463C56.7554 67.14 52.6666 73.1977 49.6869 80.1194C48.5469 82.7669 47.6209 85.5015 46.9177 88.2969C46.8064 88.741 46.5501 89.1352 46.1895 89.4171C45.8288 89.699 45.3844 89.8525 44.9266 89.8532C43.9851 89.8532 43.1654 89.2108 42.9355 88.2955C42.2326 85.5005 41.3066 82.7663 40.1663 80.1194C37.188 73.1963 33.1006 67.1386 27.9069 61.9463C22.7146 56.7554 16.6569 52.6666 9.73385 49.6869C7.08679 48.547 4.35265 47.6209 1.55769 46.9177C1.11363 46.8067 0.719285 46.5508 0.43713 46.1904C0.154975 45.83 0.0011417 45.3857 0 44.928C0 43.9865 0.643846 43.1668 1.55769 42.9369C4.35277 42.2341 7.08693 41.308 9.73385 40.1677C16.6569 37.1894 22.716 33.1006 27.9069 27.9083C33.0992 22.7174 37.188 16.6583 40.1677 9.73523C41.3072 7.08813 42.2327 4.354 42.9355 1.55908C43.0463 1.11453 43.3023 0.7197 43.6631 0.437251C44.0238 0.154802 44.4685 0.000911092 44.9266 0Z" fill="url(#paint0_linear_1902_6)"/>
</mask>
<g mask="url(#mask0_1902_6)">
<g filter="url(#filter0_f_1902_6)">
<path d="M-8.11189 70.2472C2.26995 73.9344 14.2026 67.021 18.5406 54.8059C22.8786 42.5922 17.9784 29.7015 7.59657 26.0142C-2.78528 22.327 -14.7179 29.2404 -19.0573 41.4541C-23.3939 53.6692 -18.4937 66.5599 -8.11189 70.2472Z" fill="#FFE432"/>
</g>
<g filter="url(#filter1_f_1902_6)">
<path d="M37.9874 29.9756C52.2489 29.9756 63.8119 18.1579 63.8119 3.58202C63.8119 -10.9952 52.2503 -22.8115 37.9874 -22.8115C23.7245 -22.8115 12.1602 -10.9938 12.1602 3.58202C12.1602 18.1579 23.7231 29.9756 37.9874 29.9756Z" fill="#FC413D"/>
</g>
<g filter="url(#filter2_f_1902_6)">
<path d="M27.9472 114.38C42.836 113.653 54.1414 97.4269 53.1984 78.1392C52.2569 58.8515 39.4215 43.8049 24.5327 44.5332C9.64397 45.2615 -1.66141 61.4864 -0.718491 80.7741C0.224433 100.062 13.0584 115.108 27.9472 114.38Z" fill="#00B95C"/>
</g>
<g filter="url(#filter3_f_1902_6)">
<path d="M27.9472 114.38C42.836 113.653 54.1414 97.4269 53.1984 78.1392C52.2569 58.8515 39.4215 43.8049 24.5327 44.5332C9.64397 45.2615 -1.66141 61.4864 -0.718491 80.7741C0.224433 100.062 13.0584 115.108 27.9472 114.38Z" fill="#00B95C"/>
</g>
<g filter="url(#filter4_f_1902_6)">
<path d="M42.8601 102.712C55.3411 95.1173 58.6821 77.8221 50.3218 64.0811C41.9615 50.3388 25.0651 45.3556 12.5828 52.9488C0.100443 60.5448 -3.24063 77.8401 5.11967 91.5824C13.4828 105.323 30.3778 110.307 42.8601 102.712Z" fill="#00B95C"/>
</g>
<g filter="url(#filter5_f_1902_6)">
<path d="M93.3123 59.5281C107.341 59.5281 118.714 48.5758 118.714 35.0675C118.714 21.5578 107.341 10.6055 93.3123 10.6055C79.2834 10.6055 67.9102 21.5578 67.9102 35.0675C67.9102 48.5772 79.2834 59.5281 93.3123 59.5281Z" fill="#3186FF"/>
</g>
<g filter="url(#filter6_f_1902_6)">
<path d="M-18.0885 56.6916C-5.17006 66.5141 13.7009 63.4333 24.0619 49.8073C34.423 36.1827 32.3516 17.1733 19.4332 7.35083C6.51471 -2.47301 -12.3548 0.607754 -22.7173 14.2338C-33.0784 27.8584 -31.0056 46.8691 -18.0885 56.6916Z" fill="#FBBC04"/>
</g>
<g filter="url(#filter7_f_1902_6)">
<path d="M48.1047 71.2106C63.5224 81.8112 83.9607 78.8592 93.7527 64.6143C103.546 50.3707 98.9851 30.2315 83.566 19.6309C68.147 9.0275 47.7101 11.9823 37.9167 26.2244C28.1247 40.4694 32.6842 60.6086 48.1033 71.2106H48.1047Z" fill="#3186FF"/>
</g>
<g filter="url(#filter8_f_1902_6)">
<path d="M76.1347 -3.23471C80.0573 2.09883 75.0159 12.4668 64.8764 19.9258C54.7354 27.3847 43.3359 29.1071 39.4133 23.775C35.4907 18.4401 40.5307 8.07068 50.6702 0.613141C60.8111 -6.84578 72.212 -8.56824 76.1333 -3.23609L76.1347 -3.23471Z" fill="#749BFF"/>
</g>
<g filter="url(#filter9_f_1902_6)">
<path d="M43.9325 22.2975C59.6147 7.75076 64.9967 -11.944 55.9551 -21.6917C46.9136 -31.4394 26.8699 -27.5514 11.1878 -13.0046C-4.4944 1.54215 -9.87778 21.2369 -0.834857 30.9846C8.20668 40.7323 28.2504 36.8443 43.9325 22.2975Z" fill="#FC413D"/>
</g>
<g filter="url(#filter10_f_1902_6)">
<path d="M11.7835 74.545C21.1047 81.216 31.805 82.2296 35.6847 76.8102C39.5644 71.3894 35.153 61.5877 25.8318 54.9166C16.512 48.2456 5.81028 47.232 1.93197 52.6514C-1.94772 58.0722 2.46228 67.8739 11.7835 74.545Z" fill="#FFEE48"/>
</g>
</g>
</g>
<defs>
<filter id="filter0_f_1902_6" x="-25.5567" y="20.1025" width="50.5978" height="56.0568" filterUnits="userSpaceOnUse" color-interpolation-filters="sRGB">
<feFlood flood-opacity="0" result="BackgroundImageFix"/>
<feBlend mode="normal" in="SourceGraphic" in2="BackgroundImageFix" result="shape"/>
<feGaussianBlur stdDeviation="2.46" result="effect1_foregroundBlur_1902_6"/>
</filter>
<filter id="filter1_f_1902_6" x="-11.6218" y="-46.5935" width="99.2163" height="100.351" filterUnits="userSpaceOnUse" color-interpolation-filters="sRGB">
<feFlood flood-opacity="0" result="BackgroundImageFix"/>
<feBlend mode="normal" in="SourceGraphic" in2="BackgroundImageFix" result="shape"/>
<feGaussianBlur stdDeviation="11.891" result="effect1_foregroundBlur_1902_6"/>
</filter>
<filter id="filter2_f_1902_6" x="-20.9914" y="24.2898" width="94.4633" height="110.333" filterUnits="userSpaceOnUse" color-interpolation-filters="sRGB">
<feFlood flood-opacity="0" result="BackgroundImageFix"/>
<feBlend mode="normal" in="SourceGraphic" in2="BackgroundImageFix" result="shape"/>
<feGaussianBlur stdDeviation="10.109" result="effect1_foregroundBlur_1902_6"/>
</filter>
<filter id="filter3_f_1902_6" x="-20.9914" y="24.2898" width="94.4633" height="110.333" filterUnits="userSpaceOnUse" color-interpolation-filters="sRGB">
<feFlood flood-opacity="0" result="BackgroundImageFix"/>
<feBlend mode="normal" in="SourceGraphic" in2="BackgroundImageFix" result="shape"/>
<feGaussianBlur stdDeviation="10.109" result="effect1_foregroundBlur_1902_6"/>
</filter>
<filter id="filter4_f_1902_6" x="-19.7024" y="29.1795" width="94.8462" height="97.3032" filterUnits="userSpaceOnUse" color-interpolation-filters="sRGB">
<feFlood flood-opacity="0" result="BackgroundImageFix"/>
<feBlend mode="normal" in="SourceGraphic" in2="BackgroundImageFix" result="shape"/>
<feGaussianBlur stdDeviation="10.109" result="effect1_foregroundBlur_1902_6"/>
</filter>
<filter id="filter5_f_1902_6" x="48.6982" y="-8.60653" width="89.2287" height="87.3469" filterUnits="userSpaceOnUse" color-interpolation-filters="sRGB">
<feFlood flood-opacity="0" result="BackgroundImageFix"/>
<feBlend mode="normal" in="SourceGraphic" in2="BackgroundImageFix" result="shape"/>
<feGaussianBlur stdDeviation="9.606" result="effect1_foregroundBlur_1902_6"/>
</filter>
<filter id="filter6_f_1902_6" x="-46.7245" y="-15.8075" width="94.7928" height="95.656" filterUnits="userSpaceOnUse" color-interpolation-filters="sRGB">
<feFlood flood-opacity="0" result="BackgroundImageFix"/>
<feBlend mode="normal" in="SourceGraphic" in2="BackgroundImageFix" result="shape"/>
<feGaussianBlur stdDeviation="8.706" result="effect1_foregroundBlur_1902_6"/>
</filter>
<filter id="filter7_f_1902_6" x="17.2078" y="-2.28145" width="97.2563" height="95.4027" filterUnits="userSpaceOnUse" color-interpolation-filters="sRGB">
<feFlood flood-opacity="0" result="BackgroundImageFix"/>
<feBlend mode="normal" in="SourceGraphic" in2="BackgroundImageFix" result="shape"/>
<feGaussianBlur stdDeviation="7.775" result="effect1_foregroundBlur_1902_6"/>
</filter>
<filter id="filter8_f_1902_6" x="24.168" y="-20.248" width="67.2108" height="61.035" filterUnits="userSpaceOnUse" color-interpolation-filters="sRGB">
<feFlood flood-opacity="0" result="BackgroundImageFix"/>
<feBlend mode="normal" in="SourceGraphic" in2="BackgroundImageFix" result="shape"/>
<feGaussianBlur stdDeviation="6.957" result="effect1_foregroundBlur_1902_6"/>
</filter>
<filter id="filter9_f_1902_6" x="-16.9747" y="-38.8145" width="89.0704" height="86.922" filterUnits="userSpaceOnUse" color-interpolation-filters="sRGB">
<feFlood flood-opacity="0" result="BackgroundImageFix"/>
<feBlend mode="normal" in="SourceGraphic" in2="BackgroundImageFix" result="shape"/>
<feGaussianBlur stdDeviation="5.876" result="effect1_foregroundBlur_1902_6"/>
</filter>
<filter id="filter10_f_1902_6" x="-14.0226" y="34.621" width="65.6623" height="60.2199" filterUnits="userSpaceOnUse" color-interpolation-filters="sRGB">
<feFlood flood-opacity="0" result="BackgroundImageFix"/>
<feBlend mode="normal" in="SourceGraphic" in2="BackgroundImageFix" result="shape"/>
<feGaussianBlur stdDeviation="7.273" result="effect1_foregroundBlur_1902_6"/>
</filter>
<linearGradient id="paint0_linear_1902_6" x1="25.542" y1="60.12" x2="72.2118" y2="20.7748" gradientUnits="userSpaceOnUse">
<stop stop-color="#4893FC"/>
<stop offset="0.27" stop-color="#4893FC"/>
<stop offset="0.777" stop-color="#969DFF"/>
<stop offset="1" stop-color="#BD99FE"/>
</linearGradient>
<clipPath id="clip0_1902_6">
<rect width="90" height="90" fill="white"/>
</clipPath>
</defs>
</svg>
