<svg width="272" height="272" viewBox="0 0 272 272" fill="none" xmlns="http://www.w3.org/2000/svg">
<path d="M136.304 14C172.39 14 205.205 31.4977 229.057 57.5771C252.921 83.6702 267.606 118.137 267.606 151.675C267.606 185.074 253.047 211.289 229.454 229.234C205.786 247.237 172.893 257 136.304 257C99.7142 257 66.8216 247.237 43.1533 229.234C19.5599 211.289 5 185.074 5 151.675C5.00011 118.137 19.6862 83.6702 43.5508 57.5771C67.4029 31.4978 100.217 14 136.304 14Z" fill="#F5650C" stroke="#F5650C" stroke-width="6"/>
<path d="M45 99.25C104.107 90.2398 164.228 90.1103 223.373 98.8672L225.895 99.2412C236.882 100.868 245.019 110.298 245.019 121.405V177.173C245.018 188.21 236.937 197.582 226.021 199.207L224.382 199.451C164.952 208.294 104.535 208.211 45.1299 199.202C34.4782 197.587 26.6057 188.43 26.6055 177.656V120.66C26.6057 109.959 34.4213 100.863 45 99.25Z" stroke="#F5F2EC" stroke-width="10"/>
<ellipse cx="90.2266" cy="149.224" rx="24.5079" ry="32.3504" fill="#E9E9E9"/>
<ellipse cx="182.379" cy="149.224" rx="24.5079" ry="32.3504" fill="#E9E9E9"/>
</svg>
