<svg width="792" height="792" viewBox="0 0 792 792" fill="none" xmlns="http://www.w3.org/2000/svg">
<path d="M511.129 248.08C506.661 303.937 478.103 345.088 436.616 379.261C421.083 392.056 403.861 402.204 387.667 413.922C380.565 419.061 379.142 418.283 377.135 409.862C368.272 372.659 353.128 338.472 328.494 308.849C319.069 297.514 308.443 287.31 295.927 279.684C284.607 272.787 282.482 262.199 281.475 250.845C277.849 209.958 293.221 175.054 316.078 142.582C329.383 123.68 345.502 106.967 358.55 87.8592C372.058 68.0784 383.802 47.3993 391.637 24.6525C392.609 21.83 393.051 18.5803 396.127 17C399.293 17.4925 399.289 20.2747 399.885 22.2877C409.174 53.6736 426.649 80.4006 447.133 105.393C464.852 127.011 483.838 147.705 495.631 173.54C506.335 196.991 512.673 221.349 511.129 248.08ZM429.274 248.03C428.924 225.82 416.522 209.641 402.129 194.646C397.474 189.797 392.294 191.477 387.968 195.929C379.87 204.265 373.012 213.543 368.107 224.084C355.571 251.02 362.504 279.035 385.262 294.286C392.567 299.182 399.413 299.172 406.638 294.069C422.033 283.196 429.553 268.29 429.274 248.03Z" fill="#E6501B"/>
<path d="M788.523 307.069C755.054 332.331 732.176 365.702 710.382 400.107C698.439 418.961 685.94 437.46 668.587 452.151C620.096 493.207 566.386 502.589 506.872 480.161C472.573 467.235 444.159 445.508 417.034 421.709C414.203 419.225 410.536 417.516 408.832 413.922C409.061 410.963 411.447 410.124 413.347 408.98C448.322 387.939 477.07 360.676 497.169 324.851C503.323 313.883 508.883 302.566 512.581 290.514C514.84 283.152 518.75 278.108 526.07 274.974C552.927 263.48 580.505 256.308 609.865 261.324C635.715 265.739 660.879 272.973 685.275 282.669C717.432 295.45 750.951 300.403 785.353 300.563C787.545 300.574 789.988 299.797 791.88 301.78C792.565 304.451 790.134 305.215 788.523 307.069ZM554.815 414.303C562.755 415.253 570.684 415.85 578.363 412.83C600.194 404.247 613.681 387.293 624.227 367.292C627.569 360.953 626.223 356.768 619.821 353.605C606.72 347.131 592.749 344.008 578.338 343.19C550.252 341.594 528.104 359.989 524.413 387.313C523.829 391.637 524.252 395.564 527.47 398.701C534.888 405.934 542.734 412.501 554.815 414.303Z" fill="#E6501B"/>
<path d="M544.993 726.809C518.871 719.708 493.441 712.645 469.811 700.242C428.408 678.511 402.74 645.039 392.025 599.501C383.064 561.424 388.341 524.583 399.634 488.04C404.027 473.822 410.068 460.232 415.901 446.571C419.8 437.442 421.68 436.693 428.829 443.529C449.186 462.992 473.136 476.725 498.688 487.794C521.835 497.822 546.196 502.681 571.469 501.288C580.158 500.809 585.964 504.347 591.435 510.382C625.159 547.576 637.107 591.608 632.042 640.72C627.607 683.719 627.464 726.293 640.756 768.034C641.398 770.049 642.71 772.337 640.278 775.906C611.835 753.559 581.003 735.68 544.993 726.809ZM508.895 624.912C516.091 628.692 524.263 628.768 531.876 630.967C538.138 632.776 541.031 629.972 541.855 623.945C543.604 611.158 543.857 598.429 541.778 585.614C537.937 561.937 521.567 543.734 499.991 539.647C482.304 536.296 472.401 542.442 468.066 559.839C464.671 573.459 466.65 586.203 474.509 598.112C482.764 610.621 494.254 618.775 508.895 624.912Z" fill="#E6501B"/>
<path d="M211.332 487.452C207.63 490.346 204.065 489.512 200.501 488.936C158.121 482.079 125.653 459.372 99.9774 425.92C86.9824 408.989 75.8015 390.814 64.3237 372.858C48.5137 348.124 28.3407 327.447 5.77416 308.922C3.49172 307.048 0.453407 305.686 0 302.307C0.643757 300.596 2.07269 300.612 3.26415 300.688C48.5563 303.579 90.3699 289.889 132.04 274.557C155.203 266.035 179.399 260.045 204.267 260.777C268.783 262.676 314.831 293.837 344.049 350.992C357.231 376.778 365.092 404.355 373.032 431.982C377.123 446.218 377.485 445.503 362.631 444.907C307.884 442.711 256.166 451.863 211.332 487.452ZM265.089 373.951C258.575 361.14 249.434 351.179 235.276 346.795C212.019 339.596 190.232 344.63 169.198 355.072C164.831 357.241 163.826 360.876 166.102 365.417C175.126 383.43 186.944 399.033 204.987 408.82C220.648 417.315 236.849 418.189 252.691 409.334C270.69 399.275 272.28 394.455 265.089 373.951Z" fill="#E6501B"/>
<path d="M160.764 632.485C158.791 602.985 163.273 575.341 175.631 549.276C194.65 509.162 225.768 482.368 267.465 467.76C307.412 453.764 348.645 451.722 390.395 455.323C398.7 456.039 399.43 457.54 396.652 465.61C390.648 483.057 383.948 500.301 380.747 518.584C374.675 553.27 375.385 587.563 387.455 621.024C389.362 626.309 389.137 630.747 386.697 635.698C370.667 668.234 344.983 690.421 312.584 705.576C293.192 714.648 272.69 720.43 252.122 725.926C217.99 735.046 186.334 749.059 158.729 771.502C156.622 773.215 154.579 775.417 151.364 775.343C149.369 772.477 151.252 769.792 152.022 767.342C163.429 731.03 166.921 694.117 161.496 656.338C160.409 648.766 160.97 640.956 160.764 632.485ZM325.516 560.514C322.758 550.328 319.605 540.331 306.878 538.922C290.465 537.103 275.995 541.98 265.43 554.6C248.219 575.159 244.442 599.063 250.719 624.814C252.125 630.583 255.631 632.961 261.523 631.555C267.499 630.127 273.561 628.996 279.447 627.266C306.792 619.228 331.349 593.416 325.516 560.514Z" fill="#E6501B"/>
</svg>
