<svg width="90" height="90" viewBox="0 0 90 90" fill="none" xmlns="http://www.w3.org/2000/svg">
<path d="M0 90L5.433 66.43C1.871 59.866 0 52.516 0 45C0 20.187 20.187 0 45 0C69.813 0 90 20.187 90 45C90 69.813 69.813 90 45 90C37.484 90 30.134 88.129 23.57 84.566L0 90Z" fill="#3A6CE8"/>
<path d="M66.6065 51.4995C66.1865 51.4995 65.7565 51.4595 65.3365 51.3695C64.9265 51.2895 64.5165 51.1595 64.1165 50.9995C63.7255 50.8395 63.3455 50.6395 62.9965 50.3985C62.6455 50.1695 62.3065 49.8985 62.0165 49.5985C61.7065 49.2985 61.4365 48.9585 61.2065 48.6085C60.9665 48.2585 60.7665 47.8795 60.6055 47.4895C60.4355 47.0895 60.3155 46.6885 60.2365 46.2685C60.1455 45.8485 60.1055 45.4185 60.1055 44.9985C60.1055 44.5785 60.1455 44.1485 60.2365 43.7285C60.3155 43.3185 60.4355 42.9085 60.6055 42.5085C60.7655 42.1185 60.9655 41.7385 61.1965 41.3885C61.4355 41.0385 61.7065 40.6985 62.0065 40.3985C62.3065 40.0985 62.6465 39.8285 62.9965 39.5985C63.3465 39.3585 63.7255 39.1585 64.1165 38.9985C64.5155 38.8385 64.9265 38.7085 65.3365 38.6285C66.1765 38.4585 67.0365 38.4585 67.8765 38.6285C68.2865 38.7085 68.6965 38.8385 69.0965 38.9985C69.4875 39.1585 69.8565 39.3585 70.2165 39.5985C70.5665 39.8285 70.9065 40.0985 71.2065 40.3985C71.5065 40.6985 71.7765 41.0385 72.0065 41.3885C72.2465 41.7385 72.4465 42.1185 72.6065 42.5085C72.7665 42.9085 72.8965 43.3185 72.9765 43.7285C73.0665 44.1485 73.1065 44.5785 73.1065 44.9985C73.1065 45.4185 73.0665 45.8485 72.9765 46.2685C72.8965 46.6785 72.7665 47.0885 72.6065 47.4895C72.4475 47.8795 72.2475 48.2595 72.0065 48.6085C71.7775 48.9595 71.5065 49.2985 71.2065 49.5985C70.9065 49.8985 70.5655 50.1685 70.2165 50.3985C69.8565 50.6385 69.4875 50.8385 69.0965 50.9995C68.6975 51.1595 68.2865 51.2895 67.8765 51.3695C67.4575 51.4595 67.0275 51.4995 66.6065 51.4995Z" fill="white"/>
<path d="M45 51.5C44.58 51.5 44.15 51.46 43.73 51.37C43.32 51.29 42.91 51.16 42.51 51C42.12 50.84 41.74 50.64 41.39 50.399C41.04 50.17 40.7 49.899 40.4 49.599C39.19 48.389 38.5 46.709 38.5 44.999C38.5 44.579 38.54 44.149 38.63 43.729C38.71 43.319 38.83 42.909 39 42.509C39.16 42.119 39.36 41.739 39.6 41.389C39.83 41.039 40.1 40.699 40.4 40.399C40.7 40.099 41.04 39.829 41.39 39.599C41.74 39.359 42.12 39.159 42.51 38.999C42.91 38.829 43.32 38.709 43.73 38.629C45.84 38.199 48.09 38.889 49.6 40.399C49.9 40.699 50.17 41.039 50.4 41.389C50.64 41.739 50.84 42.119 51.001 42.509C51.161 42.909 51.291 43.319 51.371 43.729C51.461 44.149 51.501 44.579 51.501 44.999C51.501 46.709 50.811 48.389 49.591 49.599C48.39 50.81 46.71 51.5 45 51.5Z" fill="white"/>
<path d="M23.3906 51.4995C22.9706 51.4995 22.5406 51.4595 22.1206 51.3695C21.7106 51.2895 21.3006 51.1595 20.9006 50.9995C20.5106 50.8395 20.1306 50.6395 19.7806 50.3985C19.4306 50.1695 19.0906 49.8985 18.7906 49.5985C17.5806 48.3885 16.8906 46.7085 16.8906 44.9985C16.8906 44.5785 16.9306 44.1485 17.0206 43.7285C17.1006 43.3185 17.2206 42.9085 17.3906 42.5085C17.5506 42.1185 17.7506 41.7385 17.9906 41.3885C18.2206 41.0385 18.4906 40.6985 18.7906 40.3985C19.0906 40.0985 19.4306 39.8285 19.7806 39.5985C20.1306 39.3585 20.5106 39.1585 20.9006 38.9985C21.3006 38.8285 21.7106 38.7085 22.1206 38.6285C22.9606 38.4585 23.8206 38.4585 24.6606 38.6285C25.0806 38.7085 25.4806 38.8285 25.8806 38.9985C26.2706 39.1585 26.6506 39.3585 27.0006 39.5985C27.3506 39.8285 27.6906 40.0985 27.9906 40.3985C28.2906 40.6985 28.5606 41.0385 28.7906 41.3885C29.0306 41.7385 29.2306 42.1185 29.3906 42.5085C29.5506 42.9085 29.6806 43.3185 29.7606 43.7285C29.8506 44.1485 29.8906 44.5785 29.8906 44.9985C29.8906 46.7085 29.2006 48.3885 27.9806 49.5985C26.7806 50.8095 25.1006 51.4995 23.3906 51.4995Z" fill="white"/>
</svg>
