<svg width="90" height="90" viewBox="0 0 90 90" fill="none" xmlns="http://www.w3.org/2000/svg">
<path d="M34.1967 1.3137L35.2067 5.4049C31.2259 6.38874 27.4159 7.96617 23.9047 10.0842L21.7441 6.46605C25.6089 4.12557 29.808 2.38815 34.1967 1.3137V1.3137ZM55.8033 1.3137L54.7933 5.4049C58.7741 6.38874 62.5841 7.96617 66.0953 10.0842L68.2815 6.46605C64.4065 4.12762 60.1993 2.39042 55.8033 1.3137V1.3137ZM6.46601 21.7313C4.1277 25.6018 2.39046 29.8048 1.31365 34.1967L5.40485 35.2067C6.38869 31.2259 7.96613 27.4159 10.0842 23.9048L6.46601 21.7313ZM4.21585 45C4.21554 42.9543 4.36939 40.9114 4.67611 38.8888L0.508197 38.2495C-0.169399 42.7201 -0.169399 47.2672 0.508197 51.7377L4.67611 51.1112C4.36987 49.0885 4.21602 47.0457 4.21585 45V45ZM68.2559 83.5212L66.0953 79.9158C62.5896 82.0358 58.7835 83.6134 54.8061 84.5951L55.8161 88.6863C60.1994 87.6015 64.3934 85.8601 68.2559 83.5212ZM85.7842 45C85.784 47.0457 85.6301 49.0885 85.3239 51.1112L89.4918 51.7377C90.1694 47.2672 90.1694 42.7201 89.4918 38.2495L85.3239 38.8888C85.6306 40.9114 85.7845 42.9543 85.7842 45V45ZM88.6864 55.7905L84.5952 54.7805C83.6136 58.7661 82.0361 62.5806 79.9158 66.0952L83.534 68.2687C85.8746 64.3948 87.6119 60.1872 88.6864 55.7905V55.7905ZM51.1112 85.3238C47.0602 85.9376 42.9398 85.9376 38.8888 85.3238L38.2623 89.4917C42.7285 90.1694 47.2715 90.1694 51.7377 89.4917L51.1112 85.3238ZM77.8319 69.1892C75.4018 72.4845 72.4881 75.3939 69.1892 77.8191L71.6951 81.2199C75.3287 78.545 78.5432 75.3434 81.2327 71.7206L77.8319 69.1892ZM69.1892 12.1682C72.4884 14.598 75.4021 17.5116 77.8319 20.8108L81.2327 18.2794C78.5527 14.6533 75.3467 11.4474 71.7207 8.76735L69.1892 12.1682ZM12.1681 20.8108C14.5979 17.5116 17.5116 14.598 20.8108 12.1682L18.2793 8.76735C14.6533 11.4474 11.4473 14.6533 8.76731 18.2794L12.1681 20.8108ZM83.534 21.7313L79.9158 23.9048C82.0358 27.4104 83.6134 31.2165 84.5952 35.1939L88.6864 34.1839C87.6095 29.7961 85.8722 25.5973 83.534 21.7313V21.7313ZM38.8888 4.67616C42.9398 4.0624 47.0602 4.0624 51.1112 4.67616L51.7377 0.50825C47.2715 -0.169417 42.7285 -0.169417 38.2623 0.50825L38.8888 4.67616ZM14.3288 82.3449L5.6222 84.365L7.65501 75.6584L3.55103 74.6995L1.51821 83.4061C1.39102 83.9459 1.3715 84.5055 1.46077 85.0528C1.55004 85.6002 1.74634 86.1246 2.03846 86.596C2.33057 87.0674 2.71276 87.4766 3.16316 87.8002C3.61356 88.1237 4.12333 88.3553 4.66332 88.4817C5.29484 88.6224 5.94956 88.6224 6.58107 88.4817L15.2877 86.4745L14.3288 82.3449ZM4.42041 70.9407L8.53718 71.8868L9.94353 65.8523C7.88979 62.4073 6.36014 58.6758 5.40485 54.7805L1.31365 55.7905C2.23389 59.5191 3.6259 63.1151 5.45599 66.4915L4.42041 70.9407ZM24.1093 80.0692L18.0748 81.4756L19.0337 85.5923L23.4701 84.5567C26.8439 86.3923 30.4407 87.7846 34.1711 88.6991L35.1811 84.6079C31.298 83.6401 27.5797 82.1019 24.1477 80.0436L24.1093 80.0692ZM45 8.43494C24.7997 8.44773 8.44768 24.8253 8.44768 45.0128C8.45881 51.8887 10.4037 58.6229 14.0603 64.446L10.5444 79.4555L25.5412 75.9397C42.6348 86.6918 65.2131 81.5651 75.9653 64.4843C86.7175 47.4036 81.6035 24.8253 64.5227 14.0603C58.6752 10.3831 51.9076 8.43307 45 8.43494" fill="#3A76F0"/>
</svg>
