<svg width="90" height="90" viewBox="0 0 90 90" fill="none" xmlns="http://www.w3.org/2000/svg">
<path d="M33.9431 3.7998C29.4029 3.7998 25.7228 7.48061 25.7228 12.0198C25.7218 13.0982 25.9335 14.1663 26.346 15.163C26.7586 16.1597 27.3637 17.0656 28.1271 17.8289C28.8904 18.5922 29.7969 19.198 30.7948 19.6116C31.7927 20.0253 32.8625 20.2388 33.9431 20.2399H42.1647V12.0198C42.1667 9.84181 41.3013 7.75225 39.7595 6.21073C38.2177 4.66921 36.1255 3.80199 33.9431 3.7998ZM33.9431 25.7199H12.021C7.48084 25.7199 3.80078 29.4007 3.80078 33.9413C3.80078 38.4804 7.48084 42.1614 12.021 42.1614H33.9445C38.4832 42.1614 42.1647 38.4804 42.1647 33.9413C42.1647 29.4007 38.4832 25.7199 33.9431 25.7199Z" fill="#2FBDEE"/>
<path d="M86.0085 33.9413C86.0085 29.4007 82.327 25.7199 77.7867 25.7199C73.2465 25.7199 69.5666 29.4007 69.5666 33.9413V42.1614H77.7867C79.9693 42.1591 82.0614 41.2918 83.6032 39.7505C85.1451 38.2088 86.0101 36.1193 86.0085 33.9413ZM64.0864 33.9413V12.0198C64.088 9.84181 63.223 7.75225 61.6811 6.21073C60.1393 4.66921 58.0472 3.80199 55.8646 3.7998C51.3244 3.7998 47.6445 7.48061 47.6445 12.0198V33.9399C47.6445 38.4818 51.3244 42.1627 55.8646 42.1627C58.0472 42.1604 60.1393 41.2931 61.6811 39.7518C63.223 38.2102 64.088 36.1207 64.0864 33.9427" fill="#29AD72"/>
<path d="M55.8646 86.0031C58.0472 86.0011 60.1393 85.1338 61.6811 83.5922C63.223 82.0509 64.088 79.961 64.0864 77.7832C64.088 75.605 63.223 73.5155 61.6811 71.9739C60.1393 70.4326 58.0472 69.5653 55.8646 69.563H47.6445V77.7832C47.6445 82.3225 51.3244 86.0031 55.8646 86.0031ZM55.8646 64.083H77.788C82.327 64.083 86.0085 60.4024 86.0085 55.8618C86.0101 53.6836 85.1451 51.5941 83.6032 50.0525C82.0614 48.5112 79.9693 47.6439 77.7867 47.6416H55.8646C51.3244 47.6416 47.6445 51.3225 47.6445 55.8618C47.6432 56.94 47.8553 58.008 48.2678 59.0048C48.68 60.0016 49.2854 60.9074 50.0488 61.6708C50.8121 62.4339 51.7184 63.0397 52.7166 63.4534C53.7144 63.8671 54.7842 64.0807 55.8646 64.0817" fill="#E9A929"/>
<path d="M3.80079 55.8618C3.7997 56.94 4.01146 58.008 4.42398 59.0048C4.8365 60.0016 5.4417 60.9074 6.20502 61.6708C6.96834 62.4339 7.87482 63.0397 8.87275 63.4534C9.87067 63.8671 10.9405 64.0807 12.021 64.0817C14.2035 64.0794 16.2957 63.2121 17.8376 61.6708C19.3793 60.1291 20.2445 58.0396 20.2427 55.8618V47.6416H12.021C7.48084 47.6416 3.80079 51.3225 3.80079 55.8618ZM25.7228 55.8618V77.7819C25.7228 82.3225 29.4029 86.0031 33.9431 86.0031C36.1255 86.0011 38.2177 85.1338 39.7595 83.5922C41.3013 82.0509 42.1667 79.961 42.1647 77.7832V55.8618C42.1657 54.7833 41.954 53.7149 41.5414 52.7182C41.1289 51.7214 40.5235 50.8156 39.7601 50.0522C38.9965 49.2887 38.0898 48.6832 37.0917 48.2695C36.0937 47.8559 35.0238 47.6426 33.9431 47.6416C29.4029 47.6416 25.7228 51.3225 25.7228 55.8618Z" fill="#DC1C50"/>
</svg>
