<svg width="90" height="90" viewBox="0 0 90 90" fill="none" xmlns="http://www.w3.org/2000/svg">
<g clip-path="url(#clip0_1890_6)">
<path fill-rule="evenodd" clip-rule="evenodd" d="M41.0096 0.298828H48.9602C59.8795 0.298828 66.2605 1.90262 71.9249 4.93958C77.5893 7.97652 82.0594 12.4125 85.0622 18.077C88.0992 23.7415 89.703 30.1225 89.703 41.0418V48.9584C89.703 59.8777 88.0992 66.2587 85.0622 71.9231C82.0252 77.5876 77.5893 82.0579 71.9249 85.0606C66.2605 88.0976 59.8795 89.7014 48.9602 89.7014H41.0436C30.1242 89.7014 23.7432 88.0976 18.0788 85.0606C12.4144 82.0237 7.94433 77.5876 4.94151 71.9231C1.90455 66.2587 0.300781 59.8777 0.300781 48.9584V41.0418C0.300781 30.1225 1.90455 23.7415 4.94151 18.077C7.97845 12.4125 12.4144 7.94241 18.0788 4.93958C23.7092 1.90262 30.1242 0.298828 41.0096 0.298828Z" fill="#0068FF"/>
<path opacity="0.12" fill-rule="evenodd" clip-rule="evenodd" d="M89.6985 47.6523V48.9588C89.6985 59.8781 88.0949 66.2591 85.0579 71.9235C82.021 77.588 77.5849 82.0581 71.9205 85.061C66.256 88.098 59.875 89.7018 48.9557 89.7018H41.0393C32.1045 89.7018 26.2082 88.6279 21.2568 86.5737L13.0938 78.1679L89.6985 47.6523Z" fill="#001A33"/>
<path fill-rule="evenodd" clip-rule="evenodd" d="M14.0017 78.4606C18.1829 78.9228 23.4105 77.7305 27.1223 75.9285C43.24 84.8372 68.435 84.4117 83.6856 74.6518C84.2771 73.7645 84.8297 72.8419 85.3425 71.8853C88.3907 66.2002 90.0002 59.796 90.0002 48.8369V40.8915C90.0002 29.9322 88.3907 23.528 85.3425 17.8429C82.3288 12.1578 77.8425 7.70567 72.1574 4.65764C66.4722 1.60963 60.068 0 49.1089 0H41.1293C31.7954 0 25.7363 1.17496 20.6453 3.41807C20.367 3.66727 20.094 3.92072 19.8267 4.17843C4.89072 18.5765 3.75535 49.7867 16.4205 66.7408C16.4347 66.7658 16.4503 66.791 16.4675 66.8165C18.4196 69.6933 16.536 74.7277 13.5907 77.6729C13.1113 78.1182 13.2825 78.3922 14.0017 78.4606Z" fill="white"/>
<path d="M37.014 30.5996H19.509V34.3532H31.6566L19.6794 49.1967C19.3041 49.7426 19.0312 50.2545 19.0312 51.4146V52.3701H35.5466C36.3656 52.3701 37.0482 51.6877 37.0482 50.8687V48.8554H24.2862L35.5466 34.7285C35.7172 34.5238 36.0243 34.1485 36.161 33.9779L36.2292 33.8754C36.8775 32.92 37.014 32.101 37.014 31.1115V30.5996Z" fill="#0068FF"/>
<path d="M59.2938 52.3701H61.7848V30.5996H58.0312V51.1075C58.0312 51.7901 58.5772 52.3701 59.2938 52.3701Z" fill="#0068FF"/>
<path d="M46.4643 35.4463C41.7554 35.4463 37.9336 39.268 37.9336 43.977C37.9336 48.686 41.7554 52.5078 46.4643 52.5078C51.1733 52.5078 54.9951 48.686 54.9951 43.977C55.0293 39.268 51.2075 35.4463 46.4643 35.4463ZM46.4643 48.9931C43.7004 48.9931 41.4483 46.7409 41.4483 43.977C41.4483 41.2131 43.7004 38.961 46.4643 38.961C49.2282 38.961 51.4804 41.2131 51.4804 43.977C51.4804 46.7409 49.2624 48.9931 46.4643 48.9931Z" fill="#0068FF"/>
<path d="M72.8763 35.3096C68.1331 35.3096 64.2773 39.1655 64.2773 43.9085C64.2773 48.6517 68.1331 52.5077 72.8763 52.5077C77.6193 52.5077 81.4753 48.6517 81.4753 43.9085C81.4753 39.1655 77.6193 35.3096 72.8763 35.3096ZM72.8763 48.993C70.0782 48.993 67.826 46.7408 67.826 43.9427C67.826 41.1446 70.0782 38.8925 72.8763 38.8925C75.6744 38.8925 77.9266 41.1446 77.9266 43.9427C77.9266 46.7408 75.6744 48.993 72.8763 48.993Z" fill="#0068FF"/>
<path d="M53.0209 52.3702H55.0342V35.9229H51.5195V50.903C51.5195 51.6878 52.2019 52.3702 53.0209 52.3702Z" fill="#0068FF"/>
</g>
<defs>
<clipPath id="clip0_1890_6">
<rect width="90" height="90" fill="white"/>
</clipPath>
</defs>
</svg>
