<svg width="90" height="90" viewBox="0 0 90 90" fill="none" xmlns="http://www.w3.org/2000/svg">
<path d="M45.1024 0H44.8975C20.1013 0 0 20.1013 0 44.8975V45.1025C0 69.8987 20.1013 90 44.8975 90H45.1024C69.8986 90 90 69.8987 90 45.1025V44.8975C90 20.1013 69.8986 0 45.1024 0Z" fill="#5865F2"/>
<path d="M67.5213 24.3391C63.3781 22.4377 58.9384 21.0377 54.2939 20.2368C54.2087 20.2211 54.1236 20.2589 54.0826 20.3377C53.5118 21.353 52.8781 22.6805 52.4366 23.7211C47.4421 22.9738 42.4728 22.9738 37.5791 23.7211C37.1345 22.6553 36.4786 21.353 35.9048 20.3377C35.8606 20.2621 35.7755 20.2242 35.6935 20.2368C31.0521 21.0377 26.6093 22.4377 22.4661 24.3391C22.4314 24.3548 22.3999 24.3801 22.3778 24.4147C13.9526 37.0021 11.6445 49.2804 12.7764 61.4074C12.7828 61.4673 12.8143 61.524 12.8616 61.5587C18.4206 65.642 23.8062 68.1204 29.0909 69.7632C29.176 69.7884 29.2643 69.7569 29.3179 69.6875C30.5665 67.9817 31.6827 66.1812 32.6381 64.2862C32.6949 64.1758 32.6381 64.0434 32.5246 63.9992C30.7557 63.3276 29.075 62.511 27.4543 61.5839C27.325 61.5083 27.3156 61.3254 27.4323 61.2371C27.7728 60.9817 28.1134 60.7168 28.4381 60.4488C28.498 60.3984 28.58 60.3889 28.6494 60.4204C39.2849 65.2763 50.8002 65.2763 61.3096 60.4204C61.379 60.3858 61.4609 60.3984 61.5208 60.4457C61.8456 60.7137 62.1861 60.9817 62.5298 61.2371C62.6465 61.3254 62.6402 61.5083 62.511 61.5839C60.8934 62.5299 59.2096 63.3308 57.4375 63.9992C57.3209 64.0434 57.2704 64.1758 57.3272 64.2893C58.3046 66.1781 59.4177 67.9785 60.6443 69.6875C60.6947 69.76 60.7861 69.7916 60.8713 69.7663C66.1812 68.1235 71.5667 65.6452 77.1257 61.5619C77.173 61.5272 77.2046 61.4704 77.2109 61.4137C78.5667 47.3948 74.9406 35.2174 67.6033 24.4211C67.5843 24.3864 67.556 24.358 67.5181 24.3422L67.5213 24.3391ZM34.2209 54.0227C31.0174 54.0227 28.3814 51.084 28.3814 47.4737C28.3814 43.8633 30.9701 40.9246 34.2209 40.9246C37.4718 40.9246 40.1142 43.8917 40.0606 47.4737C40.0606 51.084 37.4718 54.0227 34.2209 54.0227ZM55.8168 54.0227C52.6132 54.0227 49.9772 51.084 49.9772 47.4737C49.9772 43.8633 52.5659 40.9246 55.8168 40.9246C59.0677 40.9246 61.71 43.8917 61.6564 47.4737C61.6564 51.084 59.0961 54.0227 55.8168 54.0227Z" fill="white"/>
</svg>
