<svg width="90" height="92" viewBox="0 0 90 92" fill="none" xmlns="http://www.w3.org/2000/svg">
<g clip-path="url(#clip0_1873_3)">
<path d="M22.1016 0.146484L22.1045 22.1316" stroke="#7E916F" stroke-width="2"/>
<path d="M22.1035 22.1317L0 22.126" stroke="#1375EB" stroke-width="2"/>
<path d="M68.0277 0.313477C67.9968 0.324977 67.9707 0.337435 67.9495 0.350852C67.9167 0.368102 67.9003 0.394935 67.9003 0.431352L67.8945 22.1405" stroke="#F3801D" stroke-width="2"/>
<path d="M67.8979 22.1406C67.8939 22.1406 67.8889 22.1406 67.8828 22.1406" stroke="#7EB426" stroke-width="2"/>
<path d="M22.1145 22.1408C22.1125 22.1388 22.1095 22.1358 22.1055 22.1318" stroke="#91A080" stroke-width="2"/>
<path d="M89.8621 22.0713L67.8945 22.1403" stroke="#75783E" stroke-width="2"/>
<path d="M22.118 52.5233L0 52.5176" stroke="#138495" stroke-width="2"/>
<path d="M22.1201 74.4996L22.1172 63.4941" stroke="#00983A" stroke-width="2"/>
<path d="M22.1006 0.146484L22.1035 22.1316L0 22.1259V5.97123C0.163987 4.8289 0.504502 3.86961 1.02154 3.09336C2.29678 1.17286 4.1508 0.205901 6.5836 0.192484C11.727 0.165651 16.8994 0.150318 22.1006 0.146484Z" fill="#0066DA"/>
<path d="M22.1016 0.146484L67.6572 0.152234C67.7532 0.152197 67.8462 0.181329 67.9234 0.235609L68.0305 0.313234C67.9996 0.324734 67.9736 0.337193 67.9524 0.350609C67.9196 0.367859 67.9032 0.394693 67.9032 0.431109L67.8974 22.1402C67.8935 22.1402 67.8887 22.1402 67.8829 22.1402H22.1131C22.1112 22.1383 22.1083 22.1354 22.1045 22.1316L22.1016 0.146484Z" fill="#FBBC04"/>
<path d="M68.0277 0.313477L89.8621 22.0715L67.8945 22.1405L67.9003 0.431352C67.9003 0.394935 67.9167 0.368102 67.9495 0.350852C67.9707 0.337435 67.9968 0.324977 68.0277 0.313477Z" fill="#EA4335"/>
<path d="M0 22.126L22.1035 22.1317C22.1074 22.1356 22.1103 22.1384 22.1122 22.1404L22.118 52.5234L0 52.5176V22.126Z" fill="#2684FC"/>
<path d="M89.8632 22.0713L89.9992 22.169V68.7153C89.486 71.5002 88.0333 73.299 85.641 74.1117C84.7883 74.403 83.5313 74.5467 81.8702 74.5429C71.0876 74.5257 60.195 74.5094 49.1924 74.494C47.595 74.4921 45.9744 74.5036 44.3307 74.5285C44.24 74.5305 44.1628 74.563 44.0992 74.6263C38.7165 79.9489 33.3146 85.3175 27.8934 90.732C27.0628 91.5629 26.1223 92.0258 24.93 91.8504C23.8188 91.6875 22.9998 91.1183 22.4731 90.1427C22.2513 89.7287 22.1384 88.9735 22.1346 87.8772C22.121 83.4324 22.1162 78.9733 22.1201 74.4998L22.1172 63.4943L33.0503 52.6325C33.0979 52.5852 33.1547 52.5476 33.2172 52.5219C33.2798 52.4963 33.347 52.483 33.4149 52.483L67.6497 52.4945C67.7134 52.4945 67.7745 52.4694 67.8195 52.4246C67.8646 52.3799 67.8899 52.3192 67.8899 52.2559L67.8812 22.1403C67.887 22.1403 67.8918 22.1403 67.8956 22.1403L89.8632 22.0713Z" fill="#00AC47"/>
<path d="M22.118 52.5233V63.4943L22.1209 74.4998C17.4965 74.5267 12.9116 74.5353 8.36624 74.5257C6.4717 74.5219 5.10675 74.3743 4.27138 74.083C1.92926 73.2703 0.505466 71.4686 0 68.678V52.5176L22.118 52.5233Z" fill="#00832D"/>
</g>
<defs>
<clipPath id="clip0_1873_3">
<rect width="90" height="92" fill="white"/>
</clipPath>
</defs>
</svg>
