<svg width="90" height="72" viewBox="0 0 90 72" fill="none" xmlns="http://www.w3.org/2000/svg">
<path d="M76.8951 45.8712C76.555 46.4596 76.2499 47.0718 75.8695 47.6329C67.0057 60.7077 54.8153 68.6903 39.1832 71.0486C25.9237 73.0489 13.5939 70.2411 2.3156 62.9361C0.934565 62.0416 0.143442 60.804 0.0333053 59.0639C0.098026 58.7762 0.127417 58.5896 0.127444 58.4029C0.129233 46.4089 0.129331 34.415 0.122913 22.421C0.122794 22.1977 0.0427521 21.9745 0 21.7512C0.36523 21.0184 0.754576 20.9821 1.39291 21.6085C3.53254 23.7079 5.61282 25.8728 7.82768 27.8898C15.8585 35.2032 24.8027 41.1717 34.6047 45.8529C34.7526 45.9236 34.9111 45.9719 35.1528 46.0709C41.1732 48.9415 47.3215 51.1871 53.6471 52.9659C56.701 53.8247 59.7901 54.2136 62.9429 53.7914C68.2641 53.0787 72.6962 50.7137 76.1448 46.5617C76.36 46.3026 76.6434 46.1001 76.8951 45.8712Z" fill="#4C6FFB"/>
<path d="M46.6725 37.7309C45.6325 35.9339 44.6413 34.1065 43.5441 32.3451C38.3807 24.0559 32.2387 16.5521 25.0593 9.94055C21.8505 6.98558 18.3688 4.32689 15.0069 1.53855C14.6821 1.26915 14.2576 1.06849 14.4177 0.531662C14.5885 -0.0411835 15.0652 0.00662881 15.5203 0.00668499C28.2139 0.0082068 40.9076 0.0150863 53.6013 4.66825e-06C55.347 -0.00207127 56.6818 0.688234 57.7462 2.04547C62.358 7.92594 65.6179 14.4724 67.4636 21.79C62.3617 23.521 58.0522 26.3552 54.3363 30.1648C51.8301 32.7341 49.2304 35.2121 46.6725 37.7309Z" fill="#78D5B9"/>
<path d="M46.6383 37.7682C49.2309 35.212 51.8307 32.734 54.3368 30.1647C58.0528 26.3551 62.3622 23.5209 67.4746 21.8471C68.9636 21.4909 70.4046 21.1173 71.8644 20.8442C72.8837 20.6534 73.9262 20.5409 74.9628 20.4954C80.0881 20.2708 85.0108 21.1342 89.6708 23.336C89.7909 23.3927 89.9004 23.4718 90.0008 23.5319C88.9895 24.757 87.9664 25.9278 87.0196 27.1574C85.0286 29.743 83.7848 32.7525 82.3072 35.628C80.8819 38.4018 79.4789 41.1871 78.0483 43.9582C77.8023 44.4347 77.4671 44.8651 77.1287 45.3879C77.072 45.5085 77.0596 45.558 77.0473 45.6075C77.0473 45.6075 77.0424 45.5937 77.0039 45.6072C76.9393 45.7045 76.9132 45.7882 76.8871 45.8719C76.8871 45.8719 76.8912 45.868 76.8936 45.8696C76.6443 46.1001 76.3609 46.3026 76.1456 46.5617C72.6971 50.7137 68.2649 53.0787 62.9438 53.7914C59.7909 54.2136 56.7019 53.8247 53.648 52.966C47.3224 51.1871 41.1741 48.9415 35.207 46.0792C39.327 43.7776 43.1479 41.0449 46.6383 37.7682Z" fill="#293E96"/>
</svg>
