<svg width="90" height="86" viewBox="0 0 90 86" fill="none" xmlns="http://www.w3.org/2000/svg">
<path fill-rule="evenodd" clip-rule="evenodd" d="M44.9998 0C69.8528 0 90 16.3123 90 36.4345C90 43.4631 87.5401 50.0255 83.2818 55.5911C83.0711 55.908 82.7957 56.2579 82.4486 56.6447L82.4223 56.6735C80.9677 58.4332 79.3296 60.0852 77.5285 61.6102C65.0844 73.2403 44.6014 87.0867 41.898 84.9504C39.5479 83.0935 45.7687 74.0111 38.5917 72.4996C38.091 72.4415 37.5916 72.3791 37.0965 72.3082L37.0871 72.3075V72.3069C16.0077 69.279 1.56976e-08 54.3705 1.56976e-08 36.4345C-0.00064937 16.3123 20.1469 0 44.9998 0V0Z" fill="#3ACE01"/>
<path fill-rule="evenodd" clip-rule="evenodd" d="M18.8938 48.0544H27.9696C29.2605 48.0544 30.3165 46.9865 30.3165 45.6812V45.4832C30.3165 44.1779 29.2605 43.1102 27.9696 43.1102H21.4364V28.081C21.4364 26.7756 20.3805 25.708 19.0895 25.708H18.8938C17.6028 25.708 16.5469 26.7756 16.5469 28.081V45.6808C16.5469 46.9865 17.6028 48.0544 18.8938 48.0544V48.0544ZM75.1322 37.0226V36.8246C75.1322 35.5193 74.076 34.4516 72.785 34.4516H66.2522V30.6942H72.785C74.076 30.6942 75.1322 29.6266 75.1322 28.3213V28.1233C75.1322 26.818 74.076 25.7504 72.785 25.7504H63.7092C62.4182 25.7504 61.3623 26.818 61.3623 28.1233V45.7232C61.3623 47.0285 62.4182 48.0965 63.7092 48.0965H72.785C74.076 48.0965 75.1322 47.0285 75.1322 45.7232V45.5252C75.1322 44.2199 74.076 43.1523 72.785 43.1523H66.2522V39.3949H72.785C74.076 39.3955 75.1322 38.3276 75.1322 37.0226V37.0226ZM57.6783 47.347L57.679 47.346C58.1133 46.9032 58.3571 46.3051 58.3576 45.6815V28.0816C58.3576 26.7763 57.3017 25.7087 56.0104 25.7087H55.8146C54.5236 25.7087 53.4677 26.7763 53.4677 28.0816V38.4129L44.9848 26.9086C44.5796 26.1932 43.8165 25.7087 42.947 25.7087H42.7512C41.4602 25.7087 40.404 26.7763 40.404 28.0816V45.6815C40.404 46.9868 41.4599 48.0548 42.7512 48.0548H42.947C44.238 48.0548 45.2939 46.9868 45.2939 45.6815V35.1568L53.8379 46.9563C53.8905 47.039 53.9479 47.1185 54.0099 47.194L54.0103 47.1946C54.245 47.5183 54.5661 47.7403 54.924 47.8759C55.199 47.9908 55.4996 48.0544 55.8143 48.0544H56.01C56.3925 48.0547 56.7691 47.9595 57.1065 47.7774C57.3413 47.6644 57.539 47.5187 57.6783 47.347V47.347ZM34.5576 48.0544H34.7534C36.0444 48.0544 37.1003 46.9865 37.1003 45.6812V28.0813C37.1003 26.776 36.0444 25.7083 34.7534 25.7083H34.5576C33.2666 25.7083 32.2104 26.776 32.2104 28.0813V45.6812C32.2104 46.9865 33.2666 48.0544 34.5576 48.0544Z" fill="white"/>
</svg>
