<svg width="79" height="90" viewBox="0 0 79 90" fill="none" xmlns="http://www.w3.org/2000/svg">
<path d="M76.4542 87.7534V1.98329H70.2539V-0.0751953H78.8607V89.9131H70.2539V87.8546L76.4542 87.7534Z" fill="black"/>
<path d="M23.0318 29.2598V33.5905H23.1564C24.2464 32.0045 25.6846 30.694 27.3748 29.7379C29.0169 28.8296 30.9138 28.374 33.0089 28.374C35.0473 28.374 36.9159 28.7677 38.5863 29.5551C40.2708 30.3397 41.559 31.7233 42.4367 33.7171C43.3936 32.311 44.6903 31.0709 46.3437 30.0051C47.9858 28.928 49.9393 28.3909 52.1759 28.3909C53.8803 28.3909 55.4601 28.599 56.904 29.0096C58.3592 29.4258 59.6049 30.0866 60.6411 30.9977C61.6773 31.9061 62.4899 33.0956 63.0731 34.5692C63.6535 36.0371 63.9451 37.8031 63.9451 39.8841V61.3407H55.0835V43.1743C55.0835 42.0972 55.0411 41.0849 54.959 40.1372C54.8998 39.2739 54.6674 38.4302 54.2738 37.6569C53.8973 36.951 53.3225 36.3689 52.6204 35.9808C51.8928 35.5703 50.9047 35.3622 49.6477 35.3622C48.402 35.3622 47.3941 35.6012 46.6183 36.0736C45.8483 36.5517 45.2452 37.1704 44.8092 37.9353C44.3591 38.7424 44.0618 39.6282 43.9372 40.5421C43.79 41.5179 43.7164 42.5022 43.7164 43.4949V61.3519H34.8548V43.3543C34.8548 42.4038 34.835 41.4617 34.7954 40.5421C34.7631 39.6591 34.5833 38.7902 34.2631 37.9662C33.9573 37.1873 33.4137 36.5264 32.7059 36.0736C31.9755 35.6012 30.9053 35.3622 29.4784 35.3622C28.9178 35.3855 28.3629 35.4803 27.825 35.6434C27.0946 35.8529 26.4151 36.2114 25.829 36.6951C25.1835 37.2126 24.6343 37.9578 24.1756 38.928C23.7198 39.901 23.4905 41.172 23.4905 42.7525V61.3688H14.6289V29.3105L23.0318 29.2598Z" fill="black"/>
<path d="M2.37915 2.0728V87.8429H8.57942V89.9014H-0.0273438V-0.0869141H8.55111V1.97157L2.37915 2.0728Z" fill="black"/>
</svg>
