<svg width="90" height="90" viewBox="0 0 90 90" fill="none" xmlns="http://www.w3.org/2000/svg">
<path d="M32.9993 0C28.0287 0 23.9999 4.02992 23.9999 8.9997C23.9987 10.1804 24.2305 11.3497 24.6821 12.441C25.1338 13.5322 25.7963 14.524 26.632 15.3597C27.4677 16.1954 28.4601 16.8587 29.5526 17.3116C30.6451 17.7645 31.8163 17.9982 32.9993 17.9994H42.0002V8.9997C42.0023 6.61508 41.0549 4.32733 39.367 2.63959C37.679 0.951867 35.3886 0.00239162 32.9993 0ZM32.9993 23.9992H8.99939C4.02887 23.9992 0 28.0291 0 33.0004C0 37.9701 4.02887 42.0001 8.99939 42.0001H33.0008C37.9698 42.0001 42.0002 37.9701 42.0002 33.0004C42.0002 28.0291 37.9698 23.9992 32.9993 23.9992Z" fill="#2FBDEE"/>
<path d="M90 33.0004C90 28.0291 85.9696 23.9992 80.999 23.9992C76.0284 23.9992 71.9998 28.0291 71.9998 33.0004V42.0001H80.999C83.3884 41.9976 85.6788 41.0481 87.3668 39.3606C89.0548 37.6727 90.0018 35.385 90 33.0004ZM66 33.0004V8.9997C66.0019 6.61508 65.0548 4.32733 63.3669 2.63959C61.6789 0.951867 59.3885 0.00239162 56.999 0C52.0284 0 47.9998 4.02992 47.9998 8.9997V32.9989C47.9998 37.9715 52.0284 42.0016 56.999 42.0016C59.3885 41.999 61.6789 41.0495 63.3669 39.362C65.0548 37.6741 66.0019 35.3865 66 33.0019" fill="#29AD72"/>
<path d="M56.999 90C59.3885 89.9978 61.6789 89.0483 63.3669 87.3604C65.0548 85.6729 66.0019 83.3849 66.0001 81.0005C66.0019 78.6157 65.0548 76.328 63.3669 74.6402C61.6789 72.9526 59.3885 72.0031 56.999 72.0006H47.9998V81.0005C47.9998 85.9703 52.0284 90 56.999 90ZM56.999 66.0008H81.0004C85.9696 66.0008 90 61.9711 90 56.9999C90.0018 54.6151 89.0548 52.3274 87.3668 50.6395C85.6788 48.952 83.3885 48.0025 80.999 48H56.999C52.0284 48 47.9998 52.03 47.9998 56.9999C47.9984 58.1803 48.2305 59.3496 48.6822 60.441C49.1334 61.5323 49.7963 62.524 50.6319 63.3598C51.4676 64.1953 52.4598 64.8586 53.5526 65.3115C54.645 65.7644 55.8162 65.9983 56.999 65.9994" fill="#E9A929"/>
<path d="M4.54088e-06 56.9999C-0.00118322 58.1803 0.230651 59.3496 0.682269 60.441C1.13389 61.5323 1.79645 62.524 2.63212 63.3598C3.46779 64.1953 4.46019 64.8586 5.5527 65.3115C6.64521 65.7644 7.81641 65.9983 8.99939 65.9994C11.3887 65.9968 13.6793 65.0473 15.3672 63.3598C17.0551 61.6719 18.0023 59.3843 18.0003 56.9999V48H8.99939C4.02887 48 4.54088e-06 52.03 4.54088e-06 56.9999ZM23.9999 56.9999V80.999C23.9999 85.9703 28.0287 90 32.9993 90C35.3886 89.9978 37.679 89.0483 39.367 87.3604C41.0549 85.6729 42.0023 83.3849 42.0002 81.0005V56.9999C42.0013 55.819 41.7695 54.6494 41.3178 53.5581C40.8662 52.4667 40.2034 51.475 39.3677 50.6392C38.5317 49.8034 37.5391 49.1404 36.4463 48.6875C35.3538 48.2346 34.1824 48.0011 32.9993 48C28.0287 48 23.9999 52.03 23.9999 56.9999Z" fill="#DC1C50"/>
</svg>
