<svg width="90" height="90" viewBox="0 0 90 90" fill="none" xmlns="http://www.w3.org/2000/svg">
<path d="M45.1025 0H44.8975C20.1013 0 0 20.1013 0 44.8975V45.1025C0 69.8987 20.1013 90 44.8975 90H45.1025C69.8987 90 90 69.8987 90 45.1025V44.8975C90 20.1013 69.8987 0 45.1025 0Z" fill="#00E510"/>
<path d="M53.7705 58.1628C42.2521 58.1628 32.881 48.7885 32.8778 37.2701C32.881 34.3503 35.2584 31.976 38.1719 31.976C38.4715 31.976 38.7679 32.0012 39.0516 32.0516C39.676 32.1557 40.2688 32.3669 40.8143 32.6854C40.8931 32.7327 40.9467 32.8084 40.9593 32.8967L42.1764 40.5683C42.1922 40.6597 42.1638 40.748 42.1039 40.8142C41.4323 41.5583 40.5746 42.0944 39.6192 42.3624L39.1589 42.4917L39.3323 42.9363C40.9025 46.9344 44.0998 50.1286 48.1012 51.7051L48.5458 51.8817L48.675 51.4214C48.943 50.466 49.4791 49.6083 50.2232 48.9367C50.2768 48.8862 50.3493 48.861 50.4219 48.861C50.4376 48.861 50.4534 48.861 50.4723 48.8642L58.1439 50.0813C58.2353 50.097 58.311 50.1475 58.3583 50.2263C58.6736 50.7718 58.8849 51.3678 58.9921 51.9921C59.0426 52.2695 59.0646 52.5628 59.0646 52.8686C59.0646 55.7853 56.6903 58.1596 53.7705 58.1628Z" fill="#FDFDFD"/>
<path d="M74.1965 42.4728C73.5753 35.4539 70.3591 28.9426 65.1407 24.1404C59.8907 19.3098 53.0799 16.6486 45.957 16.6486C30.3237 16.6486 17.604 29.3683 17.604 45.0016C17.604 50.2484 19.0512 55.3596 21.7913 59.8119L15.6805 73.3388L35.2458 71.2546C38.648 72.6483 42.2489 73.3546 45.9538 73.3546C46.9281 73.3546 47.9277 73.3041 48.9304 73.2001C49.8133 73.1055 50.7056 72.9668 51.5822 72.7902C64.674 70.1447 74.2312 58.5254 74.3068 45.1529V45.0016C74.3068 44.1502 74.269 43.2989 74.1933 42.4728H74.1965ZM35.9994 65.3172L25.1747 66.4713L28.4066 59.3105L27.7602 58.4434C27.7129 58.3803 27.6656 58.3173 27.612 58.2447C24.8057 54.3695 23.3237 49.7912 23.3237 45.0047C23.3237 32.5246 33.4769 22.3715 45.957 22.3715C57.6488 22.3715 67.5591 31.4935 68.5145 43.1381C68.565 43.7624 68.5933 44.3899 68.5933 45.0079C68.5933 45.1845 68.5902 45.3579 68.587 45.5439C68.3474 55.9839 61.0542 64.8506 50.8506 67.1082C50.0718 67.2816 49.2741 67.4141 48.4795 67.4992C47.6534 67.5938 46.8052 67.6411 45.9633 67.6411C42.9646 67.6411 40.0512 67.0609 37.2985 65.9132C36.9926 65.7902 36.693 65.6578 36.4124 65.5222L36.0025 65.3235L35.9994 65.3172Z" fill="#FDFDFD"/>
</svg>
