<svg width="90" height="90" viewBox="0 0 90 90" fill="none" xmlns="http://www.w3.org/2000/svg">
<g clip-path="url(#clip0_1878_16)">
<rect width="79" height="90" transform="translate(5)" fill="white"/>
<path d="M81.4542 87.7534V1.98329H75.2539V-0.0751953H83.8607V89.9131H75.2539V87.8546L81.4542 87.7534Z" fill="black"/>
<path d="M28.0318 29.2598V33.5905H28.1564C29.2464 32.0045 30.6846 30.694 32.3748 29.7379C34.0169 28.8296 35.9138 28.374 38.0089 28.374C40.0473 28.374 41.9159 28.7677 43.5863 29.5551C45.2708 30.3397 46.559 31.7233 47.4367 33.7171C48.3936 32.311 49.6903 31.0709 51.3437 30.0051C52.9858 28.928 54.9393 28.3909 57.1759 28.3909C58.8803 28.3909 60.4601 28.599 61.904 29.0096C63.3592 29.4258 64.6049 30.0866 65.6411 30.9977C66.6773 31.9061 67.4899 33.0956 68.0731 34.5692C68.6535 36.0371 68.9451 37.8031 68.9451 39.8841V61.3407H60.0835V43.1743C60.0835 42.0972 60.0411 41.0849 59.959 40.1372C59.8998 39.2739 59.6674 38.4302 59.2738 37.6569C58.8973 36.951 58.3225 36.3689 57.6204 35.9808C56.8928 35.5703 55.9047 35.3622 54.6477 35.3622C53.402 35.3622 52.3941 35.6012 51.6183 36.0736C50.8483 36.5517 50.2452 37.1704 49.8092 37.9353C49.3591 38.7424 49.0618 39.6282 48.9372 40.5421C48.79 41.5179 48.7164 42.5022 48.7164 43.4949V61.3519H39.8548V43.3543C39.8548 42.4038 39.835 41.4617 39.7954 40.5421C39.7631 39.6591 39.5833 38.7902 39.2631 37.9662C38.9573 37.1873 38.4137 36.5264 37.7059 36.0736C36.9755 35.6012 35.9053 35.3622 34.4784 35.3622C33.9178 35.3855 33.3629 35.4803 32.825 35.6434C32.0946 35.8529 31.4151 36.2114 30.829 36.6951C30.1835 37.2126 29.6343 37.9578 29.1756 38.928C28.7198 39.901 28.4905 41.172 28.4905 42.7525V61.3688H19.6289V29.3105L28.0318 29.2598Z" fill="black"/>
<path d="M7.37915 2.0728V87.8429H13.5794V89.9014H4.97266V-0.0869141H13.5511V1.97157L7.37915 2.0728Z" fill="black"/>
</g>
<defs>
<clipPath id="clip0_1878_16">
<rect width="79" height="90" fill="white" transform="translate(5)"/>
</clipPath>
</defs>
</svg>
