<svg width="90" height="90" viewBox="0 0 90 90" fill="none" xmlns="http://www.w3.org/2000/svg">
<path d="M47.8095 30.0009C55.0588 30.0009 60.9355 24.1242 60.9355 16.875C60.9355 9.62571 55.0588 3.74902 47.8095 3.74902C40.5603 3.74902 34.6836 9.62571 34.6836 16.875C34.6836 24.1242 40.5603 30.0009 47.8095 30.0009Z" fill="#7B83EB"/>
<path opacity="0.1" d="M46.8767 19.6885H34.9883L35.0473 19.95L35.053 19.9725L35.1148 20.2144C35.9787 23.4902 38.0746 26.3056 40.9648 28.0728C43.8551 29.8399 47.3164 30.4223 50.6258 29.6982V23.4375C50.6228 22.4441 50.2269 21.4923 49.5244 20.7898C48.822 20.0874 47.8701 19.6914 46.8767 19.6885V19.6885Z" fill="black"/>
<path opacity="0.2" d="M44.0605 22.501H35.9492C37.0138 24.7454 38.6933 26.6417 40.7928 27.9695C42.8923 29.2973 45.3254 30.0021 47.8095 30.0019V26.25C47.8066 25.2566 47.4106 24.3048 46.7082 23.6023C46.0057 22.8999 45.0539 22.5039 44.0605 22.501V22.501Z" fill="black"/>
<path d="M77.3438 30.9375C82.7803 30.9375 87.1875 26.5303 87.1875 21.0938C87.1875 15.6572 82.7803 11.25 77.3438 11.25C71.9072 11.25 67.5 15.6572 67.5 21.0938C67.5 26.5303 71.9072 30.9375 77.3438 30.9375Z" fill="#5059C9"/>
<path d="M85.7787 33.751H63.6696C63.1923 33.751 62.7344 33.9406 62.3968 34.2782C62.0593 34.6157 61.8696 35.0736 61.8696 35.551V58.3604C61.8087 61.6615 62.8838 64.8834 64.915 67.4864C66.9461 70.0895 69.8099 71.9156 73.0268 72.6591C75.0757 73.089 77.1947 73.0566 79.2294 72.5642C81.2642 72.0719 83.1635 71.1319 84.7892 69.8129C86.4149 68.4938 87.7259 66.8288 88.6269 64.9391C89.5278 63.0494 89.9961 60.9826 89.9975 58.8891V37.9697C89.9975 36.8508 89.553 35.7778 88.7618 34.9866C87.9706 34.1955 86.8976 33.751 85.7787 33.751Z" fill="#5059C9"/>
<path d="M70.3125 37.9697V64.6885C70.3153 69.64 68.6836 74.454 65.6706 78.3834C62.6577 82.3127 58.432 85.1377 53.6493 86.42C48.8667 87.7022 43.7946 87.3699 39.2201 85.4747C34.6456 83.5795 30.8246 80.2273 28.35 75.9385C27.8088 75.039 27.3386 74.0986 26.9438 73.126C26.5756 72.2089 26.2656 71.2695 26.0156 70.3135C25.552 68.4743 25.3158 66.5852 25.3125 64.6885V37.9697C25.3118 37.4155 25.4204 36.8666 25.6321 36.3544C25.8439 35.8422 26.1546 35.3769 26.5465 34.985C26.9384 34.5931 27.4038 34.2824 27.9159 34.0706C28.4281 33.8589 28.977 33.7502 29.5313 33.751H66.0938C66.648 33.7502 67.1969 33.8589 67.7091 34.0706C68.2213 34.2824 68.6866 34.5931 69.0785 34.985C69.4704 35.3769 69.7811 35.8422 69.9929 36.3544C70.2046 36.8666 70.3132 37.4155 70.3125 37.9697Z" fill="#7B83EB"/>
<path opacity="0.2" d="M44.0605 22.501H35.9492C37.0138 24.7454 38.6933 26.6417 40.7928 27.9695C42.8923 29.2973 45.3254 30.0021 47.8095 30.0019V26.25C47.8066 25.2566 47.4106 24.3048 46.7082 23.6023C46.0057 22.8999 45.0539 22.5039 44.0605 22.501V22.501Z" fill="black"/>
<path opacity="0.1" d="M50.625 33.751V69.3854C50.625 70.2332 50.3348 71.0555 49.8027 71.7156C49.2706 72.3756 48.5286 72.8336 47.7 73.0135C47.4354 73.0922 47.1604 73.1301 46.8844 73.126H26.9438C26.5756 72.2089 26.2656 71.2695 26.0156 70.3135C25.552 68.4743 25.3158 66.5852 25.3125 64.6885V37.9697C25.3118 37.4155 25.4204 36.8666 25.6321 36.3544C25.8439 35.8422 26.1546 35.3769 26.5465 34.985C26.9384 34.5931 27.4038 34.2824 27.9159 34.0706C28.4281 33.8589 28.977 33.7502 29.5313 33.751H50.625Z" fill="black"/>
<path opacity="0.2" d="M47.8125 33.751V72.1979C47.8166 72.4739 47.7787 72.7489 47.7 73.0135C47.5202 73.842 47.0621 74.5841 46.4021 75.1162C45.742 75.6483 44.9197 75.9385 44.0719 75.9385H28.35C27.8088 75.039 27.3386 74.0986 26.9438 73.126C26.5756 72.2089 26.2656 71.2695 26.0156 70.3135C25.552 68.4743 25.3158 66.5852 25.3125 64.6885V37.9697C25.3118 37.4155 25.4204 36.8666 25.6321 36.3544C25.8439 35.8422 26.1546 35.3769 26.5465 34.985C26.9384 34.5931 27.4038 34.2824 27.9159 34.0706C28.4281 33.8589 28.977 33.7502 29.5313 33.751H47.8125Z" fill="black"/>
<path opacity="0.2" d="M47.8125 33.751V66.5729C47.8081 67.5636 47.4125 68.5124 46.712 69.213C46.0115 69.9135 45.0626 70.309 44.0719 70.3135H26.0156C25.552 68.4743 25.3158 66.5852 25.3125 64.6885V37.9697C25.3118 37.4155 25.4204 36.8666 25.6321 36.3544C25.8439 35.8422 26.1546 35.3769 26.5465 34.985C26.9384 34.5931 27.4038 34.2824 27.9159 34.0706C28.4281 33.8589 28.977 33.7502 29.5313 33.751H47.8125Z" fill="black"/>
<path opacity="0.2" d="M29.5313 33.751C28.977 33.7502 28.4281 33.8589 27.9159 34.0706C27.4038 34.2824 26.9384 34.5931 26.5465 34.985C26.1546 35.3769 25.8439 35.8422 25.6321 36.3544C25.4204 36.8666 25.3118 37.4155 25.3125 37.9697V64.6885C25.3158 66.5852 25.552 68.4743 26.0156 70.3135H41.2594C42.2501 70.309 43.199 69.9135 43.8995 69.213C44.6 68.5124 44.9956 67.5636 45 66.5729V33.751H29.5313Z" fill="black"/>
<path d="M3.74906 22.501H41.2509C42.2453 22.501 43.1988 22.896 43.9019 23.5991C44.605 24.3021 45 25.2557 45 26.25V63.7519C45 64.7462 44.605 65.6998 43.9019 66.4029C43.1988 67.106 42.2453 67.501 41.2509 67.501H3.74906C2.75475 67.501 1.80116 67.106 1.09807 66.4029C0.394989 65.6998 0 64.7462 0 63.7519L0 26.25C0 25.2557 0.394989 24.3021 1.09807 23.5991C1.80116 22.896 2.75475 22.501 3.74906 22.501V22.501Z" fill="#4B53BC"/>
<path d="M33.6922 36.4928H25.2828V59.049H19.7647V36.4928H11.3047V30.9521H33.6922V36.4928Z" fill="white"/>
</svg>
