<svg width="90" height="90" viewBox="0 0 90 90" fill="none" xmlns="http://www.w3.org/2000/svg">
<path d="M45.1024 0H44.8975C20.1013 0 0 20.1013 0 44.8975V45.1025C0 69.8987 20.1013 90 44.8975 90H45.1024C69.8986 90 90 69.8987 90 45.1025V44.8975C90 20.1013 69.8986 0 45.1024 0Z" fill="#5865F2"/>
<path d="M67.5172 24.3391C63.374 22.4378 58.9344 21.0378 54.2898 20.2369C54.2046 20.2212 54.1195 20.259 54.0785 20.3378C53.5078 21.3531 52.874 22.6806 52.4325 23.7211C47.438 22.9738 42.4687 22.9738 37.575 23.7211C37.1304 22.6554 36.4745 21.3531 35.9007 20.3378C35.8565 20.2621 35.7714 20.2243 35.6894 20.2369C31.048 21.0378 26.6052 22.4378 22.462 24.3391C22.4273 24.3549 22.3958 24.3801 22.3737 24.4148C13.9485 37.0022 11.6404 49.2805 12.7724 61.4074C12.7787 61.4673 12.8102 61.5241 12.8575 61.5588C18.4165 65.6421 23.8021 68.1205 29.0868 69.7632C29.1719 69.7885 29.2602 69.7569 29.3138 69.6876C30.5624 67.9817 31.6787 66.1813 32.6341 64.2862C32.6908 64.1759 32.634 64.0435 32.5205 63.9993C30.7516 63.3277 29.0709 62.511 27.4502 61.584C27.321 61.5083 27.3116 61.3255 27.4282 61.2372C27.7688 60.9818 28.1093 60.7169 28.4341 60.4489C28.494 60.3984 28.5759 60.389 28.6453 60.4205C39.2808 65.2763 50.7961 65.2763 61.3055 60.4205C61.3749 60.3858 61.4568 60.3984 61.5168 60.4457C61.8415 60.7137 62.182 60.9818 62.5257 61.2372C62.6424 61.3255 62.6362 61.5083 62.5069 61.584C60.8893 62.53 59.2055 63.3309 57.4335 63.9993C57.3168 64.0435 57.2663 64.1759 57.3231 64.2894C58.3005 66.1781 59.4136 67.9786 60.6402 69.6876C60.6906 69.7601 60.7821 69.7916 60.8672 69.7664C66.1771 68.1236 71.5626 65.6453 77.1216 61.5619C77.1689 61.5273 77.2005 61.4705 77.2068 61.4137C78.5626 47.3949 74.9365 35.2175 67.5992 24.4211C67.5803 24.3864 67.5519 24.3581 67.514 24.3423L67.5172 24.3391ZM34.2169 54.0228C31.0133 54.0228 28.3773 51.0841 28.3773 47.4737C28.3773 43.8634 30.966 40.9247 34.2169 40.9247C37.4677 40.9247 40.1101 43.8918 40.0565 47.4737C40.0565 51.0841 37.4677 54.0228 34.2169 54.0228ZM55.8127 54.0228C52.6091 54.0228 49.9732 51.0841 49.9732 47.4737C49.9732 43.8634 52.5618 40.9247 55.8127 40.9247C59.0636 40.9247 61.7059 43.8918 61.6523 47.4737C61.6523 51.0841 59.092 54.0228 55.8127 54.0228Z" fill="white"/>
</svg>
