<svg width="90" height="90" viewBox="0 0 90 90" fill="none" xmlns="http://www.w3.org/2000/svg">
<path fill-rule="evenodd" clip-rule="evenodd" d="M44.9998 2C69.8528 2 90 18.3123 90 38.4345C90 45.4631 87.5401 52.0255 83.2818 57.5911C83.0711 57.908 82.7957 58.2579 82.4486 58.6447L82.4223 58.6736C80.9677 60.4332 79.3296 62.0853 77.5285 63.6102C65.0844 75.2403 44.6014 89.0867 41.898 86.9504C39.5479 85.0936 45.7687 76.0111 38.5917 74.4996C38.091 74.4415 37.5916 74.3791 37.0965 74.3082L37.0871 74.3076V74.3069C16.0077 71.279 1.56976e-08 56.3705 1.56976e-08 38.4345C-0.00064937 18.3123 20.1469 2 44.9998 2V2Z" fill="#3ACE01"/>
<path fill-rule="evenodd" clip-rule="evenodd" d="M18.8898 50.0544H27.9657C29.2566 50.0544 30.3125 48.9865 30.3125 47.6812V47.4832C30.3125 46.1779 29.2566 45.1102 27.9657 45.1102H21.4325V30.081C21.4325 28.7756 20.3766 27.708 19.0856 27.708H18.8898C17.5989 27.708 16.543 28.7756 16.543 30.081V47.6808C16.543 48.9865 17.5989 50.0544 18.8898 50.0544V50.0544ZM75.1283 39.0226V38.8246C75.1283 37.5193 74.0721 36.4516 72.7811 36.4516H66.2483V32.6942H72.7811C74.0721 32.6942 75.1283 31.6266 75.1283 30.3213V30.1233C75.1283 28.818 74.0721 27.7504 72.7811 27.7504H63.7053C62.4143 27.7504 61.3584 28.818 61.3584 30.1233V47.7232C61.3584 49.0285 62.4143 50.0965 63.7053 50.0965H72.7811C74.0721 50.0965 75.1283 49.0285 75.1283 47.7232V47.5252C75.1283 46.2199 74.0721 45.1523 72.7811 45.1523H66.2483V41.3949H72.7811C74.0721 41.3955 75.1283 40.3276 75.1283 39.0226V39.0226ZM57.6744 49.347L57.6751 49.346C58.1093 48.9032 58.3532 48.3051 58.3537 47.6815V30.0816C58.3537 28.7763 57.2978 27.7087 56.0065 27.7087H55.8107C54.5197 27.7087 53.4638 28.7763 53.4638 30.0816V40.4129L44.9809 28.9086C44.5757 28.1932 43.8126 27.7087 42.9431 27.7087H42.7473C41.4563 27.7087 40.4001 28.7763 40.4001 30.0816V47.6815C40.4001 48.9868 41.456 50.0548 42.7473 50.0548H42.9431C44.2341 50.0548 45.29 48.9868 45.29 47.6815V37.1568L53.8339 48.9563C53.8865 49.039 53.944 49.1185 54.006 49.194L54.0064 49.1946C54.2411 49.5183 54.5622 49.7403 54.92 49.8759C55.1951 49.9908 55.4957 50.0544 55.8103 50.0544H56.0061C56.3886 50.0547 56.7652 49.9595 57.1026 49.7774C57.3374 49.6644 57.5351 49.5187 57.6744 49.347V49.347ZM34.5537 50.0544H34.7495C36.0405 50.0544 37.0964 48.9865 37.0964 47.6812V30.0813C37.0964 28.776 36.0405 27.7083 34.7495 27.7083H34.5537C33.2627 27.7083 32.2065 28.776 32.2065 30.0813V47.6812C32.2065 48.9865 33.2627 50.0544 34.5537 50.0544Z" fill="white"/>
</svg>
