<svg width="90" height="90" viewBox="0 0 90 90" fill="none" xmlns="http://www.w3.org/2000/svg">
<path d="M0 90L6.38392 66.0116C1.23545 56.6669 -0.400272 45.7624 1.77691 35.2991C3.9541 24.8358 9.79815 15.5156 18.2367 9.04868C26.6752 2.5818 37.1422 -0.597956 47.7168 0.0929011C58.2915 0.783758 68.2646 5.29889 75.806 12.8098C83.3475 20.3206 87.9513 30.3234 88.7729 40.9826C89.5944 51.6418 86.5785 62.2424 80.2785 70.8392C73.9785 79.436 64.8171 85.4522 54.4754 87.7841C44.1336 90.1159 33.3053 88.6068 23.9774 83.5338L0 90ZM25.1335 74.5571L26.6164 75.4446C33.3728 79.4851 41.2642 81.157 49.0608 80.2001C56.8574 79.2431 64.1212 75.7109 69.7204 70.1539C75.3195 64.5969 78.9394 57.3273 80.0159 49.478C81.0925 41.6286 79.5652 33.6404 75.6721 26.7582C71.779 19.876 65.7388 14.4865 58.4928 11.4294C51.2467 8.37233 43.2018 7.81948 35.6118 9.85701C28.0218 11.8945 21.313 16.408 16.5309 22.694C11.7488 28.98 9.16208 36.6855 9.17374 44.6096C9.16738 51.18 10.9684 57.6233 14.3764 63.2222L15.3063 64.769L11.7374 78.1579L25.1335 74.5571Z" fill="#00D95F"/>
<path fill-rule="evenodd" clip-rule="evenodd" d="M61.1282 50.77C60.2589 50.0626 59.241 49.5647 58.1522 49.3143C57.0633 49.0638 55.9321 49.0673 54.8448 49.3246C53.2111 50.0093 52.1555 52.5958 51.0999 53.889C50.8773 54.1991 50.5502 54.4165 50.18 54.5005C49.8099 54.5846 49.422 54.5294 49.0892 54.3455C43.1083 51.982 38.095 47.6479 34.8637 42.047C34.588 41.6975 34.4576 41.2537 34.4998 40.8091C34.542 40.3645 34.7535 39.9537 35.0899 39.6633C36.2672 38.4874 37.1316 37.0309 37.6032 35.4286C37.7079 33.6612 37.3066 31.9007 36.4471 30.357C35.7826 28.1929 34.518 26.2659 32.8027 24.8037C31.918 24.4023 30.9371 24.2676 29.9782 24.4161C29.0194 24.5646 28.1236 24.9898 27.399 25.6405C26.141 26.7356 25.1425 28.1014 24.477 29.6374C23.8114 31.1734 23.4959 32.8404 23.5536 34.5157C23.5575 35.4565 23.6756 36.3933 23.9054 37.3051C24.4891 39.4957 25.3866 41.5887 26.5696 43.5177C27.4231 44.9954 28.3544 46.4259 29.3594 47.8032C32.6256 52.327 36.7313 56.1679 41.4486 59.1127C43.8158 60.6092 46.3458 61.8259 48.9887 62.7389C51.7341 63.9945 54.7653 64.4764 57.7603 64.1336C59.4668 63.873 61.0836 63.1932 62.4685 62.1541C63.8535 61.115 64.964 59.7484 65.7025 58.1745C66.1364 57.2237 66.2681 56.1608 66.0795 55.1316C65.6271 53.0269 62.8373 51.7843 61.1282 50.77Z" fill="#00D95F"/>
</svg>
