<svg width="90" height="90" viewBox="0 0 90 90" fill="none" xmlns="http://www.w3.org/2000/svg">
<g clip-path="url(#clip0_1902_44)">
<path d="M77.1372 25.7354H51.4258V38.4716H77.1372V25.7354Z" fill="#FFAF00"/>
<path d="M77.1409 51.21H64.2852V63.9462H77.1409V51.21Z" fill="#FA500F"/>
<path d="M25.7112 13H12.8555V25.7362H25.7112V13Z" fill="#FFD800"/>
<path d="M77.1409 13H64.2852V25.7362H77.1409V13Z" fill="#FFD800"/>
<path d="M38.5669 25.7354H12.8555V38.4716H38.5669V25.7354Z" fill="#FFAF00"/>
<path d="M77.1418 38.4707H12.8555V51.2063H77.1418V38.4707Z" fill="#FF8205"/>
<path d="M25.7112 51.21H12.8555V63.9462H25.7112V51.21Z" fill="#FA500F"/>
<path d="M51.426 51.21H38.5703V63.9462H51.426V51.21Z" fill="#FA500F"/>
<path d="M38.5749 63.9541H0V76.6903H38.5749V63.9541Z" fill="#E10500"/>
<path d="M90.0007 63.9541H51.4258V76.6903H90.0007V63.9541Z" fill="#E10500"/>
</g>
<defs>
<clipPath id="clip0_1902_44">
<rect width="90" height="90" fill="white"/>
</clipPath>
</defs>
</svg>
