<svg width="90" height="90" viewBox="0 0 90 90" fill="none" xmlns="http://www.w3.org/2000/svg">
<g clip-path="url(#clip0_1926_6)">
<path fill-rule="evenodd" clip-rule="evenodd" d="M63.015 7.33887L90.09 22.7326V23.0589L62.7375 38.2876L62.8013 30.3489L59.7225 30.2364C55.7513 30.1314 53.6813 30.2439 51.2175 30.6489C47.2275 31.3051 43.575 32.8126 39.4163 35.7189L31.2938 41.3626C30.2288 42.0939 29.4375 42.6226 28.7438 43.0689L26.8125 44.2764L25.3238 45.1539L26.7675 46.0164L28.755 47.2839C30.54 48.4614 33.1425 50.2689 38.8838 54.2814C43.0463 57.1876 46.695 58.6951 50.685 59.3514L51.81 59.5201C54.4125 59.8614 56.9663 59.8726 62.4038 59.6439L62.4863 51.5476L89.5613 66.9414V67.2676L62.2088 82.5001L62.2613 75.5176L59.88 75.6001C54.6825 75.7576 51.8663 75.6076 48.1125 74.9926C41.76 73.9426 35.8875 71.5201 29.8088 67.2714L21.7163 61.6464C20.7854 61.0045 19.8414 60.3819 18.885 59.7789L17.1338 58.7289C16.188 58.184 15.2379 57.6464 14.2838 57.1164C10.905 55.2376 2.11125 52.9351 0 52.9351V37.0801L0.525 37.0951C2.64 37.0689 11.4375 34.7626 14.8088 32.8801L18.6188 30.7051L20.2613 29.6776C21.8663 28.6276 24.2813 26.9551 30.3338 22.7289C36.4125 18.4801 42.2813 16.0539 48.6375 15.0076C52.9575 14.2951 56.04 14.2089 62.94 14.4901L63.015 7.33887Z" fill="black"/>
</g>
<defs>
<clipPath id="clip0_1926_6">
<rect width="90" height="90" fill="white"/>
</clipPath>
</defs>
</svg>
