<svg width="90" height="90" viewBox="0 0 90 90" fill="none" xmlns="http://www.w3.org/2000/svg">
<g clip-path="url(#clip0_1927_12)">
<path d="M86.9895 16.8867C85.5121 14.3274 83.545 12.0843 81.2006 10.2853C78.8562 8.48638 76.1803 7.16687 73.3259 6.40216C70.4715 5.63745 67.4944 5.44252 64.5646 5.8285C61.6348 6.21447 58.8098 7.1738 56.2508 8.65169C52.9684 10.5353 50.2168 13.2198 48.2528 16.4546C46.2888 19.6895 45.1764 23.3693 45.0195 27.1504L67.5045 27.1804V29.1117H45.0195C45.1658 32.6254 46.137 36.1242 48.0195 39.3867C49.467 42.0022 51.421 44.303 53.7677 46.1548C56.1143 48.0066 58.8064 49.3723 61.6867 50.172C64.567 50.9717 67.5778 51.1894 70.5432 50.8125C73.5086 50.4355 76.3692 49.4714 78.9579 47.9766C81.5465 46.4817 83.8113 44.4859 85.62 42.1059C87.4287 39.7259 88.745 37.0094 89.4921 34.115C90.2391 31.2205 90.4019 28.2063 89.9709 25.2482C89.54 22.2902 88.5239 19.4476 86.982 16.8867H86.9895Z" fill="#EF2CC1"/>
<path d="M3.01689 16.8745C1.53884 19.4333 0.579295 22.2581 0.193043 25.1878C-0.193208 28.1174 0.00140017 31.0944 0.765756 33.9488C1.53011 36.8032 2.84924 39.4791 4.64782 41.8237C6.4464 44.1682 8.6892 46.1355 11.2481 47.6133C14.5207 49.5146 18.2217 50.5555 22.0055 50.6387C25.7894 50.722 29.5326 49.845 32.8856 48.0895L21.6694 28.6008L23.3419 27.637L34.5806 47.107C37.4571 45.2758 39.8798 42.8146 41.6655 39.9096C43.4512 37.0046 44.5532 33.7317 44.8884 30.3383C45.2235 26.9448 44.7829 23.5196 43.6 20.3214C42.417 17.1232 40.5226 14.2357 38.0599 11.8772C35.5972 9.51859 32.6306 7.75063 29.3843 6.70689C26.138 5.66314 22.6969 5.3709 19.3211 5.85226C15.9453 6.33363 12.7231 7.57599 9.89788 9.48548C7.0727 11.395 4.72223 13.9216 3.01689 16.8745Z" fill="#CAAEF5"/>
<path d="M44.9981 89.6025C50.9648 89.6015 56.6868 87.2306 60.9056 83.0111C65.1243 78.7917 67.4944 73.0693 67.4944 67.1025C67.4944 59.115 63.3694 52.1175 57.0881 48.1275L45.8194 67.5863L44.1544 66.6188L55.3931 47.1488C52.3688 45.573 49.0259 44.7052 45.6169 44.6111C42.208 44.517 38.8223 45.199 35.7156 46.6056C32.609 48.0122 29.8628 50.1066 27.6844 52.7305C25.5061 55.3543 23.9527 58.439 23.1417 61.7514C22.3306 65.0638 22.2831 68.5172 23.0028 71.8506C23.7224 75.184 25.1904 78.3103 27.2957 80.9931C29.401 83.6758 32.0887 85.8449 35.1554 87.3365C38.2222 88.828 41.5879 89.6028 44.9981 89.6025Z" fill="#FC4C02"/>
</g>
<defs>
<clipPath id="clip0_1927_12">
<rect width="90" height="90" fill="white"/>
</clipPath>
</defs>
</svg>
