<svg width="90" height="90" viewBox="0 0 90 90" fill="none" xmlns="http://www.w3.org/2000/svg">
<g clip-path="url(#clip0_1897_46)">
<path d="M6.13643 79.87H20.4548V45.0969L0 29.7559V73.7336C0 77.1291 2.75117 79.87 6.13643 79.87Z" fill="#4285F4"/>
<path d="M69.5469 79.87H83.8652C87.2607 79.87 90.0016 77.1189 90.0016 73.7336V29.7559L69.5469 45.0969" fill="#34A853"/>
<path d="M69.5469 18.5064V45.0976L90.0016 29.7565V21.5746C90.0016 13.9859 81.339 9.65969 75.2742 14.2109" fill="#FBBC04"/>
<path d="M20.457 45.0971V18.5059L45.0028 36.9152L69.5485 18.5059V45.0971L45.0028 63.5064" fill="#EA4335"/>
<path d="M0 21.5746V29.7565L20.4548 45.0976V18.5064L14.7274 14.2109C8.65237 9.65969 0 13.9859 0 21.5746" fill="#C5221F"/>
</g>
<defs>
<clipPath id="clip0_1897_46">
<rect width="90" height="90" fill="white"/>
</clipPath>
</defs>
</svg>
