<svg width="90" height="90" viewBox="0 0 90 90" fill="none" xmlns="http://www.w3.org/2000/svg">
<g clip-path="url(#clip0_1896_6)">
<path d="M68.6864 21.3156L47.3708 18.9473L21.318 21.3156L18.9492 45L21.3176 68.6844L45.002 71.645L68.6864 68.6844L71.0547 44.4083L68.6864 21.3156Z" fill="white"/>
<path d="M31.0324 58.0615C29.2621 56.8654 28.0363 55.1189 27.3672 52.8095L31.4766 51.1162C31.8496 52.5373 32.5008 53.6384 33.4305 54.4201C34.3543 55.2017 35.4793 55.5865 36.7938 55.5865C38.1379 55.5865 39.2926 55.1779 40.2574 54.3607C41.2222 53.5435 41.7082 52.5013 41.7082 51.2404C41.7082 49.9498 41.1988 48.8954 40.1805 48.0787C39.1621 47.2619 37.8832 46.8529 36.3555 46.8529H33.9813V42.7853H36.1125C37.4269 42.7853 38.5344 42.4303 39.4344 41.7197C40.3344 41.0092 40.7844 40.0381 40.7844 38.8006C40.7844 37.6994 40.3816 36.8228 39.5766 36.1658C38.7715 35.5088 37.7527 35.1772 36.5152 35.1772C35.3074 35.1772 34.348 35.4971 33.6375 36.1424C32.9269 36.7877 32.4117 37.5811 32.0863 38.5166L28.0188 36.8233C28.5574 35.2955 29.5465 33.9455 30.9969 32.7791C32.4477 31.6127 34.3008 31.0264 36.5508 31.0264C38.2144 31.0264 39.7125 31.3463 41.0391 31.9916C42.3652 32.6369 43.4074 33.5311 44.1594 34.6678C44.9113 35.8103 45.2844 37.0897 45.2844 38.5103C45.2844 39.9611 44.9352 41.1865 44.2363 42.1931C43.5375 43.1998 42.6789 43.9693 41.6605 44.5084V44.7509C43.0047 45.3134 44.1 46.172 44.9644 47.3267C45.823 48.4814 46.255 49.8611 46.255 51.4717C46.255 53.0822 45.8464 54.5209 45.0292 55.7822C44.212 57.0436 43.0812 58.0381 41.6484 58.7603C40.2097 59.4826 38.5933 59.8498 36.7992 59.8498C34.7211 59.8556 32.8027 59.2576 31.0324 58.0615Z" fill="#1A73E8"/>
<path d="M56.2481 37.6699L51.7598 40.9324L49.5039 37.5102L57.5981 31.6719H60.7008V59.2105H56.2481V37.6699Z" fill="#1A73E8"/>
<path d="M68.6859 90.0005L90.0015 68.6849L79.3437 63.9482L68.6859 68.6849L63.9492 79.3427L68.6859 90.0005Z" fill="#EA4335"/>
<path d="M16.5781 79.3424L21.3148 90.0002H68.6832V68.6846H21.3148L16.5781 79.3424Z" fill="#34A853"/>
<path d="M7.10505 0C3.1797 0 0 3.1797 0 7.10505V68.6839L10.6578 73.4206L21.3156 68.6839V21.3156H68.6839L73.4206 10.6578L68.6844 0H7.10505Z" fill="#4285F4"/>
<path d="M0 68.6846V82.8951C0 86.8209 3.1797 90.0002 7.10505 90.0002H21.3156V68.6846H0Z" fill="#188038"/>
<path d="M68.6836 21.3158V68.6842H89.9992V21.3158L79.3414 16.5791L68.6836 21.3158Z" fill="#FBBC04"/>
<path d="M89.9992 21.3156V7.10505C89.9992 3.17925 86.8195 0 82.8941 0H68.6836V21.3156H89.9992Z" fill="#1967D2"/>
</g>
<defs>
<clipPath id="clip0_1896_6">
<rect width="90" height="90" fill="white"/>
</clipPath>
</defs>
</svg>
