<svg width="90" height="90" viewBox="0 0 90 90" fill="none" xmlns="http://www.w3.org/2000/svg">
<g clip-path="url(#clip0_1898_11)">
<path d="M7.1576 3.95205L57.0661 0.27671C63.1967 -0.247568 64.7725 0.104949 68.6266 2.899L84.9558 14.3774L84.9672 14.3857C87.2764 16.0753 88.0612 16.6495 88.0612 18.6336V80.0029C88.0612 83.8482 86.6569 86.1234 81.7565 86.4714L23.7989 89.9696C20.1188 90.144 18.3663 89.6189 16.4388 87.1701L4.70696 71.9607C2.60267 69.1603 1.73047 67.065 1.73047 64.6163V10.0662C1.73047 6.92236 3.13122 4.29917 7.1576 3.95205Z" fill="white"/>
<path fill-rule="evenodd" clip-rule="evenodd" d="M56.8117 1.17181L7.94297 4.77361C4.00048 5.11378 2.62891 7.68448 2.62891 10.7654V64.2241C2.62891 66.6238 3.48294 68.6772 5.54338 71.4215L17.0308 86.3266C18.9182 88.7264 20.6342 89.241 24.2375 89.0701L80.9877 85.6419C85.786 85.3008 87.1611 83.0712 87.1611 79.3028V19.1614C87.1611 17.2138 86.3901 16.6524 84.1204 14.9903L68.1313 3.74163C64.3575 1.00348 62.8146 0.657136 56.8117 1.17092V1.17181ZM25.5208 18.177C20.8868 18.4881 19.8358 18.5586 17.2039 16.4233L10.513 11.1127C9.83296 10.4253 10.1748 9.56779 11.8881 9.39682L58.8668 5.97127C62.812 5.62757 64.8663 6.99973 66.4092 8.19827L74.4664 14.0236C74.8108 14.1972 75.6675 15.2221 74.6368 15.2221L26.1214 18.1365L25.5208 18.177ZM20.1184 78.789V27.7337C20.1184 25.504 20.8046 24.4756 22.8589 24.3028L78.582 21.0474C80.472 20.8773 81.326 22.0758 81.326 24.3019V75.0171C81.326 77.2468 80.9815 79.1327 77.8966 79.3028L24.5732 82.3873C21.4882 82.5574 20.1193 81.5324 20.1193 78.789H20.1184ZM72.7557 30.4709C73.0974 32.0132 72.7557 33.5554 71.2101 33.7317L68.6401 34.2402V71.9353C66.4083 73.1338 64.354 73.8186 62.6371 73.8186C59.8931 73.8186 59.2077 72.9611 57.1526 70.393L40.3458 44.0074V69.5355L45.6625 70.7367C45.6625 70.7367 45.6625 73.8212 41.3729 73.8212L29.5472 74.506C29.2028 73.8186 29.5472 72.1062 30.7457 71.7652L33.8341 70.9103V37.1572L29.5481 36.8109C29.2036 35.2686 30.0603 33.0416 32.4626 32.8689L45.1511 32.0167L62.638 58.7434V35.0985L58.1806 34.5874C57.8362 32.6988 59.2077 31.3267 60.9211 31.1592L72.7557 30.4709Z" fill="black"/>
</g>
<defs>
<clipPath id="clip0_1898_11">
<rect width="90" height="90" fill="white"/>
</clipPath>
</defs>
</svg>
