<svg width="100" height="100" viewBox="0 0 100 100" fill="none" xmlns="http://www.w3.org/2000/svg">
<path d="M7.56038 81.5773L11.9706 89.1949C12.887 90.7986 14.2044 92.0587 15.7508 92.9751L31.5016 65.7119H0C0 67.4875 0.458205 69.263 1.37462 70.8667L7.56038 81.5773Z" fill="#0066DA"/>
<path d="M50.0016 33.6372L34.2508 6.37402C32.7044 7.29043 31.387 8.5505 30.4706 10.1542L1.37462 60.5568C0.475059 62.1259 0.00119771 63.9029 0 65.7116H31.5016L50.0016 33.6372Z" fill="#00AC47"/>
<path d="M84.2492 92.9751C85.7956 92.0587 87.113 90.7986 88.0294 89.1949L89.8622 86.0448L98.6254 70.8667C99.5418 69.263 100 67.4875 100 65.7119H68.4961L75.1996 78.8853L84.2492 92.9751Z" fill="#EA4335"/>
<path d="M50.0008 33.6378L65.7516 6.37462C64.2052 5.45821 62.4296 5 60.5968 5H39.4048C37.572 5 35.7964 5.51548 34.25 6.37462L50.0008 33.6378Z" fill="#00832D"/>
<path d="M68.5048 65.7119H31.5047L15.7539 92.9751C17.3003 93.8915 19.0759 94.3497 20.9087 94.3497H79.1008C80.9336 94.3497 82.7091 93.8343 84.2556 92.9751L68.5048 65.7119Z" fill="#2684FC"/>
<path d="M84.0829 35.3555L69.5349 10.1542C68.6185 8.5505 67.3011 7.29043 65.7547 6.37402L50.0039 33.6372L68.5039 65.7116H99.9483C99.9483 63.936 99.4901 62.1605 98.5736 60.5568L84.0829 35.3555Z" fill="#FFBA00"/>
</svg>
