<svg width="90" height="90" viewBox="0 0 90 90" fill="none" xmlns="http://www.w3.org/2000/svg">
<path d="M89.0582 17.5391C88.1033 17.075 87.6925 17.959 87.1339 18.4083C86.9452 18.5557 86.7822 18.7472 86.6231 18.9166C85.2278 20.4046 83.5994 21.3769 81.4753 21.2591C78.363 21.0897 75.7095 22.062 73.3634 24.434C72.8636 21.5095 71.2056 19.7637 68.6856 18.6441C67.3645 18.0621 66.0283 17.4802 65.1071 16.2132C64.4595 15.3145 64.2855 14.3127 63.9596 13.3256C63.7561 12.729 63.5488 12.1176 62.8607 12.0145C62.113 11.8966 61.8208 12.5227 61.5282 13.0457C60.3516 15.1819 59.8999 17.5391 59.9408 19.9258C60.0443 25.2883 62.3203 29.5607 66.8351 32.6031C67.3498 32.9494 67.4828 33.3028 67.3198 33.8112C67.0129 34.857 66.6464 35.8738 66.3209 36.9196C66.1174 37.5902 65.8101 37.7373 65.0923 37.4428C62.6128 36.4116 60.4698 34.8868 58.5788 33.0376C55.3668 29.9438 52.4617 26.5261 48.8385 23.8521C47.9874 23.2259 47.1401 22.644 46.259 22.0915C42.5619 18.5115 46.744 15.5724 47.7096 15.2261C48.7237 14.8652 48.0613 13.6129 44.7898 13.6276C41.522 13.6424 38.5283 14.7326 34.7164 16.1838C34.1578 16.4047 33.5731 16.5668 32.9698 16.692C29.5095 16.0438 25.9163 15.8964 22.1599 16.3163C15.0915 17.1045 9.44414 20.4341 5.29188 26.1207C0.306984 32.9494 -0.866149 40.7134 0.569753 48.8161C2.07966 57.3462 6.45024 64.4178 13.1708 69.9427C20.1356 75.6663 28.1589 78.4727 37.3107 77.9349C42.8692 77.6181 49.0606 76.8744 56.0402 70.9885C57.8016 71.8579 59.6482 72.2041 62.7163 72.4692C65.0775 72.6902 67.3498 72.3516 69.1112 71.9902C71.8681 71.4087 71.6759 68.867 70.6804 68.3956C62.598 64.6463 64.3704 66.1712 62.7568 64.9409C66.8647 60.0941 73.0561 55.0629 75.4765 38.7688C75.6652 37.4722 75.5022 36.662 75.4765 35.6087C75.4617 34.975 75.6061 34.7246 76.3386 34.6511C78.363 34.4225 80.3282 33.87 82.134 32.8758C87.3708 30.0249 89.48 25.3475 89.9795 19.7343C90.0538 18.8798 89.9647 17.9885 89.0582 17.5391ZM43.4282 68.0494C35.5936 61.9135 31.7965 59.895 30.2276 59.9836C28.7618 60.0643 29.0248 61.7366 29.3466 62.827C29.6834 63.9022 30.1238 64.6463 30.7419 65.5892C31.1674 66.2153 31.46 67.1506 30.3163 67.8431C27.7925 69.4049 23.4072 67.3203 23.1999 67.217C18.0965 64.2266 13.8295 60.2706 10.8208 54.8638C7.91941 49.6561 6.23188 44.0723 5.95434 38.113C5.88033 36.6692 6.30589 36.1608 7.7418 35.9032C9.63286 35.557 11.5869 35.4834 13.4779 35.7558C21.4716 36.9196 28.2771 40.4849 33.9801 46.1203C37.2368 49.3393 39.7015 53.1771 42.2401 56.9264C44.9379 60.9118 47.843 64.7052 51.5401 67.8137C52.8426 68.904 53.8862 69.7364 54.8817 70.3477C51.877 70.6793 46.8585 70.7528 43.4282 68.0494ZM47.1806 43.9841C47.1806 43.3429 47.6948 42.8349 48.3425 42.8349C48.4869 42.8349 48.6202 42.8643 48.7385 42.9084C48.8976 42.9673 49.0458 43.0559 49.1606 43.1883C49.3676 43.3874 49.4862 43.682 49.4862 43.9841C49.4862 44.6249 48.9719 45.1333 48.3277 45.1333C47.6801 45.1333 47.1806 44.6249 47.1806 43.9841ZM58.8414 49.9506C58.0941 50.2527 57.3465 50.5178 56.6287 50.5473C55.5146 50.5989 54.297 50.1494 53.6346 49.5972C52.6095 48.7426 51.877 48.2636 51.5659 46.761C51.4363 46.1203 51.5105 45.1333 51.625 44.566C51.8918 43.3429 51.5954 42.5622 50.7333 41.8479C50.0266 41.2659 49.1345 41.1113 48.1503 41.1113C47.7839 41.1113 47.447 40.9491 47.1954 40.8164C46.7846 40.6101 46.4477 40.102 46.7698 39.476C46.8733 39.2768 47.3731 38.7835 47.4913 38.6949C48.8237 37.9364 50.3631 38.1869 51.7879 38.7541C53.109 39.2915 54.1045 40.2786 55.5404 41.671C57.0096 43.358 57.2726 43.8294 58.1089 45.0888C58.7675 46.0833 59.3708 47.0997 59.7816 48.2636C60.0295 48.9855 59.7077 49.5821 58.8414 49.9506Z" fill="#4D6BFE"/>
</svg>
