<svg width="90" height="90" viewBox="0 0 90 90" fill="none" xmlns="http://www.w3.org/2000/svg">
<path d="M34.7587 57.4316L64.6791 35.3296C66.146 34.2461 68.2426 34.6687 68.9416 36.3519C72.6201 45.2279 70.9766 55.8947 63.6577 63.2185C56.339 70.5421 46.1555 72.1483 36.8477 68.4903L26.6797 73.2013C41.2636 83.1762 58.9731 80.7094 70.0397 69.6278C78.8178 60.8437 81.5364 48.8705 78.9944 38.0733L79.0173 38.0962C75.331 22.2345 79.9237 15.8944 89.3314 2.92988C89.5539 2.62248 89.7767 2.31508 89.9994 2L77.6195 14.3882V14.3497L34.7512 57.4394" fill="black"/>
<path d="M28.5843 62.8034C18.1166 52.7974 19.9214 37.3122 28.8529 28.3824C35.4575 21.7733 46.2784 19.0759 55.7244 23.0413L65.8695 18.3535C64.0419 17.0317 61.6993 15.6099 59.0115 14.6109C46.8621 9.60798 32.3165 12.0979 22.4403 21.9731C12.9405 31.4794 9.95301 46.0962 15.0831 58.5689C18.9153 67.8908 12.6332 74.4843 6.30511 81.1397C4.0626 83.4988 1.81242 85.8582 0 88.3558L28.5765 62.8109" fill="black"/>
</svg>
