<svg width="90" height="90" viewBox="0 0 90 90" fill="none" xmlns="http://www.w3.org/2000/svg">
<g clip-path="url(#clip0_1928_18)">
<path d="M64.6875 73.125V67.5H73.125V53.4375L67.5 47.8125H56.25V53.4375H47.8125V67.5L53.4375 73.125H64.6875ZM56.25 56.25H64.6875V64.6875H56.25V56.25Z" fill="#DFE86A"/>
<path d="M42.1875 47.8125H33.75V56.25H42.1875V47.8125Z" fill="#DFE86A"/>
<path d="M73.125 33.75H64.6875V25.3125L56.25 16.875H47.8125V25.3125H56.25V33.75H47.8125V42.1875H73.125V33.75Z" fill="#DFE86A"/>
<path d="M0 0V90H90V0H0ZM81.5625 81.5625H8.4375V8.4375H81.5625V81.5625Z" fill="#DFE86A"/>
<path d="M42.1875 73.125V64.6875H25.3125V47.8125H16.875V65.2148L24.7852 73.125H42.1875Z" fill="#DFE86A"/>
<path d="M42.1875 16.875H33.75V25.3125H42.1875V16.875Z" fill="#DFE86A"/>
<path d="M25.3125 33.75H33.75V42.1875H42.1875V33.75L33.75 25.3125H25.3125V16.875H16.875V42.1875H25.3125V33.75Z" fill="#DFE86A"/>
</g>
<defs>
<clipPath id="clip0_1928_18">
<rect width="90" height="90" fill="white"/>
</clipPath>
</defs>
</svg>
