<svg width="90" height="90" viewBox="0 0 90 90" fill="none" xmlns="http://www.w3.org/2000/svg">
<g clip-path="url(#clip0_1897_99)">
<path fill-rule="evenodd" clip-rule="evenodd" d="M45 0.833008C20.1375 0.833008 0 21.0975 0 46.1168C0 66.1549 12.8812 83.0797 30.7687 89.0798C33.0187 89.4761 33.8625 88.1176 33.8625 86.9289C33.8625 85.8534 33.8063 82.2873 33.8063 78.4947C22.5 80.5891 19.575 75.7211 18.675 73.1739C18.1687 71.872 15.975 67.853 14.0625 66.7776C12.4875 65.9285 10.2375 63.8341 14.0063 63.7775C17.55 63.7209 20.0812 67.0606 20.925 68.4191C24.975 75.2683 31.4438 73.3437 34.0313 72.155C34.425 69.2116 35.6062 67.2304 36.9 66.0983C26.8875 64.9662 16.425 61.0605 16.425 43.7394C16.425 38.8148 18.1688 34.7393 21.0375 31.5694C20.5875 30.4373 19.0125 25.7957 21.4875 19.5692C21.4875 19.5692 25.2562 18.3805 33.8625 24.2108C37.4625 23.1919 41.2875 22.6824 45.1125 22.6824C48.9375 22.6824 52.7625 23.1919 56.3625 24.2108C64.9687 18.3239 68.7375 19.5692 68.7375 19.5692C71.2125 25.7957 69.6375 30.4373 69.1875 31.5694C72.0562 34.7393 73.8 38.7582 73.8 43.7394C73.8 61.1171 63.2812 64.9662 53.2687 66.0983C54.9 67.5134 56.3063 70.2305 56.3063 74.4758C56.3063 80.5325 56.25 85.4005 56.25 86.9289C56.25 88.1176 57.0937 89.5327 59.3437 89.0798C77.1187 83.0797 90 66.0983 90 46.1168C90 21.0975 69.8625 0.833008 45 0.833008Z" fill="#1B1F23"/>
</g>
<defs>
<clipPath id="clip0_1897_99">
<rect width="90" height="90" fill="white"/>
</clipPath>
</defs>
</svg>
