<svg width="90" height="90" viewBox="0 0 90 90" fill="none" xmlns="http://www.w3.org/2000/svg">
<g clip-path="url(#clip0_1878_17)">
<path d="M22.6094 0.143555L22.6122 21.6507" stroke="#7E916F" stroke-width="2"/>
<path d="M22.6123 21.6511L1 21.6455" stroke="#1375EB" stroke-width="2"/>
<path d="M67.5169 0.306641C67.4867 0.317891 67.4612 0.330078 67.4405 0.343203C67.4084 0.360078 67.3924 0.386328 67.3924 0.421953L67.3867 21.6591" stroke="#F3801D" stroke-width="2"/>
<path d="M67.3888 21.6592C67.3851 21.6592 67.3805 21.6592 67.375 21.6592" stroke="#7EB426" stroke-width="2"/>
<path d="M22.6212 21.6583C22.6195 21.6565 22.6168 21.6539 22.6133 21.6504" stroke="#91A080" stroke-width="2"/>
<path d="M88.8661 21.5918L67.3867 21.6585" stroke="#75783E" stroke-width="2"/>
<path d="M22.6265 51.3815L1 51.376" stroke="#138495" stroke-width="2"/>
<path d="M22.6278 72.8805L22.625 62.1143" stroke="#00983A" stroke-width="2"/>
<path d="M22.6095 0.143555L22.6123 21.6507L1 21.6451V5.84168C1.16034 4.72418 1.49329 3.78574 1.99884 3.02637C3.24575 1.14762 5.05856 0.20168 7.4373 0.188555C12.4664 0.162305 17.5238 0.147305 22.6095 0.143555Z" fill="#0066DA"/>
<path d="M22.6094 0.143555L67.1526 0.14918C67.2465 0.149143 67.3375 0.177642 67.413 0.230742L67.5177 0.30668C67.4875 0.31793 67.462 0.330117 67.4413 0.343242C67.4092 0.360117 67.3932 0.386367 67.3932 0.421992L67.3875 21.6592C67.3837 21.6592 67.379 21.6592 67.3734 21.6592H22.6207C22.6188 21.6573 22.616 21.6545 22.6122 21.6507L22.6094 0.143555Z" fill="#FBBC04"/>
<path d="M67.5169 0.306641L88.8661 21.5916L67.3867 21.6591L67.3924 0.421953C67.3924 0.386328 67.4084 0.360078 67.4405 0.343203C67.4612 0.330078 67.4867 0.317891 67.5169 0.306641Z" fill="#EA4335"/>
<path d="M1 21.6445L22.6123 21.6502C22.6161 21.6539 22.6189 21.6567 22.6208 21.6586L22.6265 51.3811L1 51.3755V21.6445Z" fill="#2684FC"/>
<path d="M88.8655 21.5918L88.9985 21.6874V67.2218C88.4967 69.9462 87.0763 71.7059 84.7372 72.5009C83.9034 72.7859 82.6744 72.9265 81.0502 72.9227C70.5072 72.9059 59.8566 72.8899 49.0986 72.8749C47.5366 72.873 45.9521 72.8843 44.3449 72.9087C44.2562 72.9106 44.1808 72.9424 44.1185 73.0043C38.8555 78.2112 33.5736 83.463 28.2728 88.7599C27.4608 89.5727 26.5411 90.0256 25.3754 89.854C24.2888 89.6946 23.488 89.1377 22.973 88.1834C22.7561 87.7784 22.6457 87.0396 22.642 85.9671C22.6288 81.619 22.6241 77.2568 22.6278 72.8806L22.625 62.1143L33.3152 51.4887C33.3617 51.4423 33.4172 51.4055 33.4784 51.3804C33.5396 51.3554 33.6052 51.3424 33.6717 51.3424L67.1456 51.3537C67.2079 51.3537 67.2677 51.3291 67.3117 51.2853C67.3558 51.2415 67.3805 51.1821 67.3805 51.1202L67.372 21.6593C67.3777 21.6593 67.3824 21.6593 67.3862 21.6593L88.8655 21.5918Z" fill="#00AC47"/>
<path d="M22.6265 51.3816V62.1141L22.6293 72.8804C18.1077 72.9066 13.6247 72.915 9.18032 72.9057C7.32789 72.9019 5.99327 72.7575 5.17646 72.4725C2.88639 71.6775 1.49423 69.915 1 67.185V51.376L22.6265 51.3816Z" fill="#00832D"/>
</g>
<defs>
<clipPath id="clip0_1878_17">
<rect width="88" height="90" fill="white" transform="translate(1)"/>
</clipPath>
</defs>
</svg>
