<svg width="90" height="90" viewBox="0 0 90 90" fill="none" xmlns="http://www.w3.org/2000/svg">
<path d="M75.3101 54.7322C74.9858 55.2932 74.695 55.8768 74.3323 56.4118C65.8818 68.8769 54.2597 76.4874 39.3564 78.7357C26.7151 80.6428 14.9601 77.9659 4.20764 71.0015C2.89099 70.1487 2.13675 68.9687 2.03175 67.3098C2.09346 67.0355 2.12148 66.8576 2.1215 66.6796C2.12321 55.2448 2.1233 43.8101 2.11718 32.3753C2.11707 32.1624 2.04076 31.9496 2 31.7367C2.3482 31.0381 2.7194 31.0035 3.32797 31.6006C5.36785 33.6022 7.35113 35.6662 9.46274 37.5891C17.1192 44.5615 25.6464 50.2517 34.9913 54.7148C35.1323 54.7821 35.2834 54.8282 35.5139 54.9226C41.2537 57.6593 47.1153 59.8003 53.146 61.4962C56.0575 62.3149 59.0025 62.6857 62.0084 62.2831C67.0815 61.6037 71.307 59.3489 74.5947 55.3905C74.7999 55.1434 75.0702 54.9504 75.3101 54.7322Z" fill="#4C6FFB"/>
<path d="M46.4992 46.9718C45.5076 45.2586 44.5626 43.5163 43.5166 41.8371C38.5939 33.9343 32.7383 26.7804 25.8936 20.4771C22.8344 17.6599 19.515 15.1252 16.3098 12.4668C16.0002 12.21 15.5955 12.0187 15.7481 11.5069C15.911 10.9607 16.3654 11.0063 16.7993 11.0064C28.9011 11.0078 41.003 11.0144 53.1048 11C54.7692 10.998 56.0418 11.6561 57.0566 12.9501C61.4533 18.5564 64.5612 24.7977 66.3209 31.7741C61.4568 33.4244 57.3483 36.1264 53.8056 39.7584C51.4163 42.2079 48.9378 44.5704 46.4992 46.9718Z" fill="#78D5B9"/>
<path d="M46.4647 47.0072C48.9365 44.5702 51.415 42.2077 53.8043 39.7582C57.347 36.1262 61.4555 33.4242 66.3296 31.8284C67.7492 31.4888 69.123 31.1326 70.5147 30.8722C71.4865 30.6903 72.4804 30.583 73.4687 30.5397C78.355 30.3256 83.0482 31.1487 87.491 33.2478C87.6054 33.3019 87.7099 33.3773 87.8056 33.4347C86.8414 34.6026 85.866 35.7189 84.9633 36.8911C83.0651 39.3562 81.8793 42.2253 80.4707 44.9667C79.1118 47.6112 77.7742 50.2667 76.4103 52.9086C76.1758 53.3628 75.8562 53.7732 75.5336 54.2716C75.4795 54.3866 75.4677 54.4338 75.4559 54.481C75.4559 54.481 75.4513 54.4678 75.4146 54.4808C75.3531 54.5735 75.3282 54.6533 75.3033 54.7331C75.3033 54.7331 75.3071 54.7294 75.3094 54.7309C75.0718 54.9506 74.8016 55.1437 74.5964 55.3907C71.3086 59.3492 67.0831 61.6039 62.01 62.2833C59.0041 62.6859 56.0591 62.3151 53.1476 61.4964C47.1169 59.8005 41.2553 57.6596 35.5664 54.9307C39.4942 52.7364 43.137 50.1311 46.4647 47.0072Z" fill="#293E96"/>
</svg>
