<svg width="90" height="90" viewBox="0 0 90 90" fill="none" xmlns="http://www.w3.org/2000/svg">
<g clip-path="url(#clip0_318_61)">
<path d="M45 90C69.8528 90 90 69.8528 90 45C90 20.1472 69.8528 0 45 0C20.1472 0 0 20.1472 0 45C0 69.8528 20.1472 90 45 90Z" fill="url(#paint0_linear_318_61)"/>
<path fill-rule="evenodd" clip-rule="evenodd" d="M20.3696 44.525C33.488 38.8095 42.2357 35.0415 46.6126 33.221C59.1095 28.0231 61.7063 27.1201 63.3988 27.0903C63.7711 27.0838 64.6034 27.176 65.1426 27.6135C65.5978 27.9829 65.7231 28.4819 65.783 28.8322C65.843 29.1824 65.9176 29.9802 65.8583 30.6037C65.1811 37.7192 62.2508 54.9868 60.76 62.9563C60.1292 66.3285 58.8871 67.4592 57.6847 67.5699C55.0714 67.8103 53.0871 65.8429 50.556 64.1837C46.5954 61.5875 44.358 59.9714 40.5135 57.438C36.0706 54.5101 38.9508 52.901 41.4828 50.2711C42.1454 49.5829 53.6594 39.1101 53.8822 38.16C53.9101 38.0412 53.936 37.5983 53.6728 37.3644C53.4097 37.1306 53.0214 37.2105 52.7411 37.2741C52.3439 37.3643 46.0168 41.5463 33.7599 49.82C31.9639 51.0532 30.3373 51.6541 28.8798 51.6226C27.2731 51.5879 24.1824 50.7141 21.8847 49.9673C19.0666 49.0512 16.8268 48.5669 17.0218 47.0111C17.1234 46.2008 18.2393 45.3721 20.3696 44.525Z" fill="white"/>
</g>
<defs>
<linearGradient id="paint0_linear_318_61" x1="45" y1="0" x2="45" y2="89.3325" gradientUnits="userSpaceOnUse">
<stop stop-color="#2AABEE"/>
<stop offset="1" stop-color="#229ED9"/>
</linearGradient>
<clipPath id="clip0_318_61">
<rect width="90" height="90" fill="white"/>
</clipPath>
</defs>
</svg>
